<mxfile host="app.diagrams.net" agent="Mozilla/5.0 (Windows NT 10.0; Win64; x64) AppleWebKit/537.36 (KHTML, like Gecko) Chrome/136.0.0.0 Safari/537.36" version="27.1.1">
  <diagram name="Page-1" id="f93k07r-DjLafKTs3u3J">
    <mxGraphModel dx="2536" dy="619" grid="1" gridSize="10" guides="1" tooltips="1" connect="1" arrows="1" fold="1" page="1" pageScale="1" pageWidth="1169" pageHeight="1654" math="0" shadow="0">
      <root>
        <mxCell id="0" />
        <mxCell id="1" parent="0" />
        <mxCell id="yXZyFi9JdaWAmMFbI6_c-4" value="" style="verticalLabelPosition=bottom;verticalAlign=top;html=1;shape=mxgraph.basic.patternFillRect;fillStyle=grid;step=5;fillStrokeWidth=0.2;fillStrokeColor=#dddddd;" parent="1" vertex="1">
          <mxGeometry x="40" y="80" width="120" height="40" as="geometry" />
        </mxCell>
        <mxCell id="yXZyFi9JdaWAmMFbI6_c-5" value="" style="verticalLabelPosition=bottom;verticalAlign=top;html=1;shape=mxgraph.basic.patternFillRect;fillStyle=grid;step=5;fillStrokeWidth=0.2;fillStrokeColor=#dddddd;" parent="1" vertex="1">
          <mxGeometry x="160" y="80" width="120" height="40" as="geometry" />
        </mxCell>
        <mxCell id="yXZyFi9JdaWAmMFbI6_c-6" value="" style="verticalLabelPosition=bottom;verticalAlign=top;html=1;shape=mxgraph.basic.patternFillRect;fillStyle=grid;step=5;fillStrokeWidth=0.2;fillStrokeColor=#dddddd;" parent="1" vertex="1">
          <mxGeometry x="520" y="80" width="120" height="40" as="geometry" />
        </mxCell>
        <mxCell id="yXZyFi9JdaWAmMFbI6_c-7" value="" style="verticalLabelPosition=bottom;verticalAlign=top;html=1;shape=mxgraph.basic.patternFillRect;fillStyle=grid;step=5;fillStrokeWidth=0.2;fillStrokeColor=#dddddd;" parent="1" vertex="1">
          <mxGeometry x="400" y="80" width="120" height="40" as="geometry" />
        </mxCell>
        <mxCell id="yXZyFi9JdaWAmMFbI6_c-13" value="&lt;span style=&quot;text-wrap-mode: wrap;&quot;&gt;OverDue_Days&lt;/span&gt;" style="text;html=1;align=center;verticalAlign=middle;resizable=0;points=[];autosize=1;strokeColor=none;fillColor=none;fontStyle=0" parent="1" vertex="1">
          <mxGeometry x="165" y="85" width="110" height="30" as="geometry" />
        </mxCell>
        <mxCell id="yXZyFi9JdaWAmMFbI6_c-14" value="&lt;span style=&quot;text-wrap-mode: wrap;&quot;&gt;fine_total&lt;/span&gt;" style="text;html=1;align=center;verticalAlign=middle;resizable=0;points=[];autosize=1;strokeColor=none;fillColor=none;fontStyle=0" parent="1" vertex="1">
          <mxGeometry x="305" y="85" width="70" height="30" as="geometry" />
        </mxCell>
        <mxCell id="yXZyFi9JdaWAmMFbI6_c-15" value="&lt;span style=&quot;text-wrap-mode: wrap;&quot;&gt;Paid_Stauts&lt;/span&gt;" style="text;html=1;align=center;verticalAlign=middle;resizable=0;points=[];autosize=1;strokeColor=none;fillColor=none;fontStyle=0" parent="1" vertex="1">
          <mxGeometry x="415" y="85" width="90" height="30" as="geometry" />
        </mxCell>
        <mxCell id="yXZyFi9JdaWAmMFbI6_c-16" value="&lt;u style=&quot;text-wrap-mode: wrap;&quot;&gt;Transications_ID&lt;/u&gt;&lt;span style=&quot;text-wrap-mode: wrap;&quot;&gt;&amp;nbsp;(FK)&lt;/span&gt;" style="text;html=1;align=center;verticalAlign=middle;resizable=0;points=[];autosize=1;strokeColor=none;fillColor=none;fontStyle=0" parent="1" vertex="1">
          <mxGeometry x="510" y="85" width="140" height="30" as="geometry" />
        </mxCell>
        <mxCell id="yXZyFi9JdaWAmMFbI6_c-17" value="&lt;h1&gt;&lt;span style=&quot;text-wrap-mode: wrap;&quot;&gt;&lt;font style=&quot;font-size: 20px;&quot;&gt;Transactions&lt;/font&gt;&lt;/span&gt;&lt;/h1&gt;" style="text;html=1;align=center;verticalAlign=middle;resizable=0;points=[];autosize=1;strokeColor=none;fillColor=none;fontStyle=0" parent="1" vertex="1">
          <mxGeometry x="20" y="130" width="150" height="70" as="geometry" />
        </mxCell>
        <mxCell id="yXZyFi9JdaWAmMFbI6_c-18" value="" style="verticalLabelPosition=bottom;verticalAlign=top;html=1;shape=mxgraph.basic.patternFillRect;fillStyle=grid;step=5;fillStrokeWidth=0.2;fillStrokeColor=#dddddd;" parent="1" vertex="1">
          <mxGeometry x="40" y="200" width="120" height="40" as="geometry" />
        </mxCell>
        <mxCell id="yXZyFi9JdaWAmMFbI6_c-19" value="" style="verticalLabelPosition=bottom;verticalAlign=top;html=1;shape=mxgraph.basic.patternFillRect;fillStyle=grid;step=5;fillStrokeWidth=0.2;fillStrokeColor=#dddddd;" parent="1" vertex="1">
          <mxGeometry x="160" y="200" width="120" height="40" as="geometry" />
        </mxCell>
        <mxCell id="yXZyFi9JdaWAmMFbI6_c-20" value="" style="verticalLabelPosition=bottom;verticalAlign=top;html=1;shape=mxgraph.basic.patternFillRect;fillStyle=grid;step=5;fillStrokeWidth=0.2;fillStrokeColor=#dddddd;" parent="1" vertex="1">
          <mxGeometry x="280" y="200" width="120" height="40" as="geometry" />
        </mxCell>
        <mxCell id="yXZyFi9JdaWAmMFbI6_c-22" value="&lt;span style=&quot;text-wrap-mode: wrap;&quot;&gt;Due date&amp;nbsp;&lt;/span&gt;" style="text;html=1;align=center;verticalAlign=middle;resizable=0;points=[];autosize=1;strokeColor=none;fillColor=none;fontStyle=0" parent="1" vertex="1">
          <mxGeometry x="300" y="205" width="80" height="30" as="geometry" />
        </mxCell>
        <mxCell id="yXZyFi9JdaWAmMFbI6_c-23" value="&lt;span style=&quot;text-wrap-mode: wrap;&quot;&gt;Transactions_Date&lt;/span&gt;" style="text;html=1;align=center;verticalAlign=middle;resizable=0;points=[];autosize=1;strokeColor=none;fillColor=none;fontStyle=0" parent="1" vertex="1">
          <mxGeometry x="160" y="205" width="120" height="30" as="geometry" />
        </mxCell>
        <mxCell id="yXZyFi9JdaWAmMFbI6_c-26" value="&lt;h1&gt;Members&lt;/h1&gt;" style="text;html=1;align=center;verticalAlign=middle;resizable=0;points=[];autosize=1;strokeColor=none;fillColor=none;fontStyle=0" parent="1" vertex="1">
          <mxGeometry x="15" y="255" width="130" height="70" as="geometry" />
        </mxCell>
        <mxCell id="yXZyFi9JdaWAmMFbI6_c-27" value="" style="verticalLabelPosition=bottom;verticalAlign=top;html=1;shape=mxgraph.basic.patternFillRect;fillStyle=grid;step=5;fillStrokeWidth=0.2;fillStrokeColor=#dddddd;" parent="1" vertex="1">
          <mxGeometry x="280" y="320" width="120" height="40" as="geometry" />
        </mxCell>
        <mxCell id="yXZyFi9JdaWAmMFbI6_c-29" value="" style="verticalLabelPosition=bottom;verticalAlign=top;html=1;shape=mxgraph.basic.patternFillRect;fillStyle=grid;step=5;fillStrokeWidth=0.2;fillStrokeColor=#dddddd;" parent="1" vertex="1">
          <mxGeometry x="160" y="320" width="120" height="40" as="geometry" />
        </mxCell>
        <mxCell id="yXZyFi9JdaWAmMFbI6_c-30" value="" style="verticalLabelPosition=bottom;verticalAlign=top;html=1;shape=mxgraph.basic.patternFillRect;fillStyle=grid;step=5;fillStrokeWidth=0.2;fillStrokeColor=#dddddd;" parent="1" vertex="1">
          <mxGeometry x="40" y="320" width="120" height="40" as="geometry" />
        </mxCell>
        <mxCell id="yXZyFi9JdaWAmMFbI6_c-33" value="&lt;br style=&quot;text-wrap-mode: wrap;&quot;&gt;&lt;span style=&quot;text-wrap-mode: wrap;&quot;&gt;RegistrationDate&lt;/span&gt;" style="text;html=1;align=center;verticalAlign=middle;resizable=0;points=[];autosize=1;strokeColor=none;fillColor=none;fontStyle=0" parent="1" vertex="1">
          <mxGeometry x="290" y="310" width="110" height="40" as="geometry" />
        </mxCell>
        <mxCell id="yXZyFi9JdaWAmMFbI6_c-35" value="&lt;span style=&quot;text-wrap-mode: wrap;&quot;&gt;MemberDetails&lt;/span&gt;" style="text;html=1;align=center;verticalAlign=middle;resizable=0;points=[];autosize=1;strokeColor=none;fillColor=none;fontStyle=0" parent="1" vertex="1">
          <mxGeometry x="170" y="325" width="100" height="30" as="geometry" />
        </mxCell>
        <mxCell id="yXZyFi9JdaWAmMFbI6_c-57" value="" style="verticalLabelPosition=bottom;verticalAlign=top;html=1;shape=mxgraph.basic.patternFillRect;fillStyle=grid;step=5;fillStrokeWidth=0.2;fillStrokeColor=#dddddd;" parent="1" vertex="1">
          <mxGeometry x="40" y="550" width="120" height="40" as="geometry" />
        </mxCell>
        <mxCell id="yXZyFi9JdaWAmMFbI6_c-58" value="&lt;span style=&quot;text-wrap-mode: wrap; text-decoration-line: underline;&quot;&gt;Books ID&lt;/span&gt;" style="text;html=1;align=center;verticalAlign=middle;resizable=0;points=[];autosize=1;strokeColor=none;fillColor=none;fontStyle=0" parent="1" vertex="1">
          <mxGeometry x="60" y="555" width="70" height="30" as="geometry" />
        </mxCell>
        <mxCell id="yXZyFi9JdaWAmMFbI6_c-60" value="&lt;h1&gt;Books&lt;/h1&gt;" style="text;html=1;align=center;verticalAlign=middle;resizable=0;points=[];autosize=1;strokeColor=none;fillColor=none;fontStyle=1" parent="1" vertex="1">
          <mxGeometry x="40" y="470" width="100" height="70" as="geometry" />
        </mxCell>
        <object label="&lt;h1&gt;Fines&lt;/h1&gt;" fines="" id="wt9cHeiA5utjjMeXRoty-1">
          <mxCell style="text;html=1;align=center;verticalAlign=middle;resizable=0;points=[];autosize=1;strokeColor=none;fillColor=none;fontStyle=0" parent="1" vertex="1">
            <mxGeometry x="25" y="15" width="90" height="70" as="geometry" />
          </mxCell>
        </object>
        <mxCell id="wt9cHeiA5utjjMeXRoty-2" value="&lt;u style=&quot;text-wrap-mode: wrap;&quot;&gt;FineID&lt;/u&gt;" style="text;html=1;align=center;verticalAlign=middle;resizable=0;points=[];autosize=1;strokeColor=none;fillColor=none;fontStyle=0" parent="1" vertex="1">
          <mxGeometry x="70" y="85" width="60" height="30" as="geometry" />
        </mxCell>
        <mxCell id="zBZpdm07kDkXtNAK2ePg-10" value="" style="verticalLabelPosition=bottom;verticalAlign=top;html=1;shape=mxgraph.basic.patternFillRect;fillStyle=grid;step=5;fillStrokeWidth=0.2;fillStrokeColor=#dddddd;" parent="1" vertex="1">
          <mxGeometry x="400" y="320" width="120" height="40" as="geometry" />
        </mxCell>
        <mxCell id="zBZpdm07kDkXtNAK2ePg-11" value="&lt;span style=&quot;text-wrap-mode: wrap;&quot;&gt;Loan History&lt;/span&gt;" style="text;html=1;align=center;verticalAlign=middle;resizable=0;points=[];autosize=1;strokeColor=none;fillColor=none;fontStyle=0" parent="1" vertex="1">
          <mxGeometry x="409" y="325" width="90" height="30" as="geometry" />
        </mxCell>
        <mxCell id="zBZpdm07kDkXtNAK2ePg-12" value="" style="verticalLabelPosition=bottom;verticalAlign=top;html=1;shape=mxgraph.basic.patternFillRect;fillStyle=grid;step=5;fillStrokeWidth=0.2;fillStrokeColor=#dddddd;" parent="1" vertex="1">
          <mxGeometry x="160" y="550" width="120" height="40" as="geometry" />
        </mxCell>
        <mxCell id="zBZpdm07kDkXtNAK2ePg-14" value="" style="verticalLabelPosition=bottom;verticalAlign=top;html=1;shape=mxgraph.basic.patternFillRect;fillStyle=grid;step=5;fillStrokeWidth=0.2;fillStrokeColor=#dddddd;" parent="1" vertex="1">
          <mxGeometry x="280" y="550" width="120" height="40" as="geometry" />
        </mxCell>
        <mxCell id="zBZpdm07kDkXtNAK2ePg-15" value="&lt;span style=&quot;text-wrap-mode: wrap;&quot;&gt;Publish_date&lt;/span&gt;" style="text;html=1;align=center;verticalAlign=middle;resizable=0;points=[];autosize=1;strokeColor=none;fillColor=none;fontStyle=0" parent="1" vertex="1">
          <mxGeometry x="300" y="555" width="90" height="30" as="geometry" />
        </mxCell>
        <mxCell id="zBZpdm07kDkXtNAK2ePg-16" value="" style="verticalLabelPosition=bottom;verticalAlign=top;html=1;shape=mxgraph.basic.patternFillRect;fillStyle=grid;step=5;fillStrokeWidth=0.2;fillStrokeColor=#dddddd;" parent="1" vertex="1">
          <mxGeometry x="400" y="550" width="120" height="40" as="geometry" />
        </mxCell>
        <mxCell id="zBZpdm07kDkXtNAK2ePg-17" value="&lt;span style=&quot;text-wrap-mode: wrap;&quot;&gt;description&lt;/span&gt;" style="text;html=1;align=center;verticalAlign=middle;resizable=0;points=[];autosize=1;strokeColor=none;fillColor=none;fontStyle=0" parent="1" vertex="1">
          <mxGeometry x="420" y="555" width="80" height="30" as="geometry" />
        </mxCell>
        <mxCell id="zBZpdm07kDkXtNAK2ePg-18" value="" style="verticalLabelPosition=bottom;verticalAlign=top;html=1;shape=mxgraph.basic.patternFillRect;fillStyle=grid;step=5;fillStrokeWidth=0.2;fillStrokeColor=#dddddd;" parent="1" vertex="1">
          <mxGeometry x="520" y="550" width="120" height="40" as="geometry" />
        </mxCell>
        <mxCell id="zBZpdm07kDkXtNAK2ePg-19" value="&lt;span style=&quot;text-wrap-mode: wrap;&quot;&gt;book_category&lt;/span&gt;" style="text;html=1;align=center;verticalAlign=middle;resizable=0;points=[];autosize=1;strokeColor=none;fillColor=none;fontStyle=0" parent="1" vertex="1">
          <mxGeometry x="525" y="555" width="100" height="30" as="geometry" />
        </mxCell>
        <mxCell id="zBZpdm07kDkXtNAK2ePg-20" value="" style="verticalLabelPosition=bottom;verticalAlign=top;html=1;shape=mxgraph.basic.patternFillRect;fillStyle=grid;step=5;fillStrokeWidth=0.2;fillStrokeColor=#dddddd;" parent="1" vertex="1">
          <mxGeometry x="640" y="550" width="120" height="40" as="geometry" />
        </mxCell>
        <mxCell id="zBZpdm07kDkXtNAK2ePg-22" value="" style="verticalLabelPosition=bottom;verticalAlign=top;html=1;shape=mxgraph.basic.patternFillRect;fillStyle=grid;step=5;fillStrokeWidth=0.2;fillStrokeColor=#dddddd;" parent="1" vertex="1">
          <mxGeometry x="760" y="550" width="120" height="40" as="geometry" />
        </mxCell>
        <mxCell id="zBZpdm07kDkXtNAK2ePg-23" value="&lt;span style=&quot;text-wrap-mode: wrap;&quot;&gt;Price&lt;/span&gt;" style="text;html=1;align=center;verticalAlign=middle;resizable=0;points=[];autosize=1;strokeColor=none;fillColor=none;fontStyle=0" parent="1" vertex="1">
          <mxGeometry x="670" y="555" width="50" height="30" as="geometry" />
        </mxCell>
        <mxCell id="zBZpdm07kDkXtNAK2ePg-24" value="" style="verticalLabelPosition=bottom;verticalAlign=top;html=1;shape=mxgraph.basic.patternFillRect;fillStyle=grid;step=5;fillStrokeWidth=0.2;fillStrokeColor=#dddddd;" parent="1" vertex="1">
          <mxGeometry x="880" y="550" width="120" height="40" as="geometry" />
        </mxCell>
        <mxCell id="zBZpdm07kDkXtNAK2ePg-25" value="&lt;span style=&quot;text-wrap-mode: wrap;&quot;&gt;ISBN&lt;/span&gt;" style="text;html=1;align=center;verticalAlign=middle;resizable=0;points=[];autosize=1;strokeColor=none;fillColor=none;fontStyle=0" parent="1" vertex="1">
          <mxGeometry x="795" y="555" width="50" height="30" as="geometry" />
        </mxCell>
        <mxCell id="-Ux1Ze0q71ANIovZU4FX-13" value="" style="verticalLabelPosition=bottom;verticalAlign=top;html=1;shape=mxgraph.basic.patternFillRect;fillStyle=grid;step=5;fillStrokeWidth=0.2;fillStrokeColor=#dddddd;" parent="1" vertex="1">
          <mxGeometry x="400" y="200" width="120" height="40" as="geometry" />
        </mxCell>
        <mxCell id="-Ux1Ze0q71ANIovZU4FX-15" value="&lt;u style=&quot;text-wrap-mode: wrap;&quot;&gt;Transications_ID&lt;/u&gt;" style="text;html=1;align=center;verticalAlign=middle;resizable=0;points=[];autosize=1;strokeColor=none;fillColor=none;fontStyle=1" parent="1" vertex="1">
          <mxGeometry x="45" y="205" width="110" height="30" as="geometry" />
        </mxCell>
        <mxCell id="iMN4HVAPdnXT3awYnCwE-2" value="&lt;u style=&quot;text-wrap-mode: wrap;&quot;&gt;MemberID&lt;/u&gt;" style="text;html=1;align=center;verticalAlign=middle;resizable=0;points=[];autosize=1;strokeColor=none;fillColor=none;fontStyle=0" parent="1" vertex="1">
          <mxGeometry x="55" y="325" width="80" height="30" as="geometry" />
        </mxCell>
        <mxCell id="tIjBGX7rcAunNY12ScB5-10" value="&lt;span style=&quot;text-wrap-mode: wrap;&quot;&gt;Title&lt;/span&gt;" style="text;html=1;align=center;verticalAlign=middle;resizable=0;points=[];autosize=1;strokeColor=none;fillColor=none;fontStyle=0" parent="1" vertex="1">
          <mxGeometry x="190" y="555" width="50" height="30" as="geometry" />
        </mxCell>
        <mxCell id="tIjBGX7rcAunNY12ScB5-11" value="&lt;span style=&quot;text-wrap-mode: wrap;&quot;&gt;AvailabilityStatus&lt;/span&gt;" style="text;html=1;align=center;verticalAlign=middle;resizable=0;points=[];autosize=1;strokeColor=none;fillColor=none;fontStyle=0" parent="1" vertex="1">
          <mxGeometry x="890" y="555" width="110" height="30" as="geometry" />
        </mxCell>
        <mxCell id="iMN4HVAPdnXT3awYnCwE-14" value="&lt;h1&gt;Author&lt;/h1&gt;" style="text;html=1;align=center;verticalAlign=middle;resizable=0;points=[];autosize=1;strokeColor=none;fillColor=none;fontStyle=0" parent="1" vertex="1">
          <mxGeometry x="40" y="360" width="100" height="70" as="geometry" />
        </mxCell>
        <mxCell id="iMN4HVAPdnXT3awYnCwE-15" value="" style="verticalLabelPosition=bottom;verticalAlign=top;html=1;shape=mxgraph.basic.patternFillRect;fillStyle=grid;step=5;fillStrokeWidth=0.2;fillStrokeColor=#dddddd;" parent="1" vertex="1">
          <mxGeometry x="40" y="430" width="120" height="40" as="geometry" />
        </mxCell>
        <mxCell id="iMN4HVAPdnXT3awYnCwE-16" value="" style="verticalLabelPosition=bottom;verticalAlign=top;html=1;shape=mxgraph.basic.patternFillRect;fillStyle=grid;step=5;fillStrokeWidth=0.2;fillStrokeColor=#dddddd;" parent="1" vertex="1">
          <mxGeometry x="160" y="430" width="120" height="40" as="geometry" />
        </mxCell>
        <mxCell id="iMN4HVAPdnXT3awYnCwE-17" value="" style="verticalLabelPosition=bottom;verticalAlign=top;html=1;shape=mxgraph.basic.patternFillRect;fillStyle=grid;step=5;fillStrokeWidth=0.2;fillStrokeColor=#dddddd;" parent="1" vertex="1">
          <mxGeometry x="280" y="430" width="120" height="40" as="geometry" />
        </mxCell>
        <mxCell id="iMN4HVAPdnXT3awYnCwE-18" value="&lt;span style=&quot;text-wrap-mode: wrap;&quot;&gt;Email&lt;/span&gt;" style="text;html=1;align=center;verticalAlign=middle;resizable=0;points=[];autosize=1;strokeColor=none;fillColor=none;fontStyle=0" parent="1" vertex="1">
          <mxGeometry x="195" y="435" width="50" height="30" as="geometry" />
        </mxCell>
        <mxCell id="iMN4HVAPdnXT3awYnCwE-19" value="&lt;u style=&quot;text-wrap-mode: wrap;&quot;&gt;Author_ID&lt;/u&gt;" style="text;html=1;align=center;verticalAlign=middle;resizable=0;points=[];autosize=1;strokeColor=none;fillColor=none;fontStyle=0" parent="1" vertex="1">
          <mxGeometry x="65" y="435" width="80" height="30" as="geometry" />
        </mxCell>
        <mxCell id="iMN4HVAPdnXT3awYnCwE-20" value="&lt;span style=&quot;text-wrap-mode: wrap;&quot;&gt;phone no&amp;nbsp;&lt;/span&gt;" style="text;html=1;align=center;verticalAlign=middle;resizable=0;points=[];autosize=1;strokeColor=none;fillColor=none;fontStyle=0" parent="1" vertex="1">
          <mxGeometry x="300" y="435" width="80" height="30" as="geometry" />
        </mxCell>
        <mxCell id="tIjBGX7rcAunNY12ScB5-24" value="&lt;h1&gt;Publisher&lt;/h1&gt;" style="text;html=1;align=center;verticalAlign=middle;resizable=0;points=[];autosize=1;strokeColor=none;fillColor=none;fontStyle=0" parent="1" vertex="1">
          <mxGeometry x="35" y="610" width="130" height="70" as="geometry" />
        </mxCell>
        <mxCell id="tIjBGX7rcAunNY12ScB5-28" value="" style="verticalLabelPosition=bottom;verticalAlign=top;html=1;shape=mxgraph.basic.patternFillRect;fillStyle=grid;step=5;fillStrokeWidth=0.2;fillStrokeColor=#dddddd;" parent="1" vertex="1">
          <mxGeometry x="155" y="690" width="120" height="40" as="geometry" />
        </mxCell>
        <mxCell id="tIjBGX7rcAunNY12ScB5-26" value="" style="verticalLabelPosition=bottom;verticalAlign=top;html=1;shape=mxgraph.basic.patternFillRect;fillStyle=grid;step=5;fillStrokeWidth=0.2;fillStrokeColor=#dddddd;" parent="1" vertex="1">
          <mxGeometry x="35" y="690" width="120" height="40" as="geometry" />
        </mxCell>
        <mxCell id="tIjBGX7rcAunNY12ScB5-32" value="&lt;u style=&quot;text-wrap-mode: wrap;&quot;&gt;Publisher_ID&lt;/u&gt;" style="text;html=1;align=center;verticalAlign=middle;resizable=0;points=[];autosize=1;strokeColor=none;fillColor=none;fontStyle=0" parent="1" vertex="1">
          <mxGeometry x="50" y="695" width="90" height="30" as="geometry" />
        </mxCell>
        <mxCell id="tIjBGX7rcAunNY12ScB5-27" value="" style="verticalLabelPosition=bottom;verticalAlign=top;html=1;shape=mxgraph.basic.patternFillRect;fillStyle=grid;step=5;fillStrokeWidth=0.2;fillStrokeColor=#dddddd;" parent="1" vertex="1">
          <mxGeometry x="275" y="690" width="120" height="40" as="geometry" />
        </mxCell>
        <mxCell id="tIjBGX7rcAunNY12ScB5-33" value="&lt;span style=&quot;text-wrap-mode: wrap;&quot;&gt;Pub_Name&lt;/span&gt;" style="text;html=1;align=center;verticalAlign=middle;resizable=0;points=[];autosize=1;strokeColor=none;fillColor=none;fontStyle=0" parent="1" vertex="1">
          <mxGeometry x="175" y="695" width="80" height="30" as="geometry" />
        </mxCell>
        <mxCell id="tIjBGX7rcAunNY12ScB5-34" value="&lt;span style=&quot;text-wrap-mode: wrap;&quot;&gt;language&lt;/span&gt;" style="text;html=1;align=center;verticalAlign=middle;resizable=0;points=[];autosize=1;strokeColor=none;fillColor=none;fontStyle=0" parent="1" vertex="1">
          <mxGeometry x="300" y="695" width="70" height="30" as="geometry" />
        </mxCell>
        <mxCell id="tIjBGX7rcAunNY12ScB5-46" value="&lt;h1&gt;Book Request&lt;/h1&gt;" style="text;html=1;align=center;verticalAlign=middle;resizable=0;points=[];autosize=1;strokeColor=none;fillColor=none;fontStyle=0" parent="1" vertex="1">
          <mxGeometry x="30" y="740" width="180" height="70" as="geometry" />
        </mxCell>
        <mxCell id="tIjBGX7rcAunNY12ScB5-47" value="" style="verticalLabelPosition=bottom;verticalAlign=top;html=1;shape=mxgraph.basic.patternFillRect;fillStyle=grid;step=5;fillStrokeWidth=0.2;fillStrokeColor=#dddddd;" parent="1" vertex="1">
          <mxGeometry x="35" y="810" width="120" height="40" as="geometry" />
        </mxCell>
        <mxCell id="tIjBGX7rcAunNY12ScB5-48" value="" style="verticalLabelPosition=bottom;verticalAlign=top;html=1;shape=mxgraph.basic.patternFillRect;fillStyle=grid;step=5;fillStrokeWidth=0.2;fillStrokeColor=#dddddd;" parent="1" vertex="1">
          <mxGeometry x="155" y="810" width="120" height="40" as="geometry" />
        </mxCell>
        <mxCell id="iMN4HVAPdnXT3awYnCwE-26" value="" style="verticalLabelPosition=bottom;verticalAlign=top;html=1;shape=mxgraph.basic.patternFillRect;fillStyle=grid;step=5;fillStrokeWidth=0.2;fillStrokeColor=#dddddd;" parent="1" vertex="1">
          <mxGeometry x="400" y="430" width="120" height="40" as="geometry" />
        </mxCell>
        <mxCell id="tIjBGX7rcAunNY12ScB5-51" value="&lt;u style=&quot;text-wrap-mode: wrap;&quot;&gt;Request_ID&lt;/u&gt;" style="text;html=1;align=center;verticalAlign=middle;resizable=0;points=[];autosize=1;strokeColor=none;fillColor=none;fontStyle=0" parent="1" vertex="1">
          <mxGeometry x="50" y="815" width="90" height="30" as="geometry" />
        </mxCell>
        <mxCell id="tIjBGX7rcAunNY12ScB5-52" value="&lt;span style=&quot;text-wrap-mode: wrap;&quot;&gt;request_date&lt;/span&gt;" style="text;html=1;align=center;verticalAlign=middle;resizable=0;points=[];autosize=1;strokeColor=none;fillColor=none;fontStyle=0" parent="1" vertex="1">
          <mxGeometry x="165" y="815" width="90" height="30" as="geometry" />
        </mxCell>
        <mxCell id="iMN4HVAPdnXT3awYnCwE-28" value="&lt;span style=&quot;text-wrap-mode: wrap;&quot;&gt;Author_name&lt;/span&gt;" style="text;html=1;align=center;verticalAlign=middle;resizable=0;points=[];autosize=1;strokeColor=none;fillColor=none;fontStyle=0" parent="1" vertex="1">
          <mxGeometry x="400" y="435" width="100" height="30" as="geometry" />
        </mxCell>
        <mxCell id="tIjBGX7rcAunNY12ScB5-58" value="&lt;h1&gt;&lt;span style=&quot;text-wrap-mode: wrap;&quot;&gt;&lt;font style=&quot;font-size: 24px;&quot;&gt;library_events&lt;/font&gt;&lt;/span&gt;&lt;/h1&gt;" style="text;html=1;align=center;verticalAlign=middle;resizable=0;points=[];autosize=1;strokeColor=none;fillColor=none;fontStyle=0" parent="1" vertex="1">
          <mxGeometry x="35" y="850" width="190" height="70" as="geometry" />
        </mxCell>
        <mxCell id="tIjBGX7rcAunNY12ScB5-60" value="" style="verticalLabelPosition=bottom;verticalAlign=top;html=1;shape=mxgraph.basic.patternFillRect;fillStyle=grid;step=5;fillStrokeWidth=0.2;fillStrokeColor=#dddddd;" parent="1" vertex="1">
          <mxGeometry x="35" y="920" width="120" height="40" as="geometry" />
        </mxCell>
        <mxCell id="tIjBGX7rcAunNY12ScB5-61" value="" style="verticalLabelPosition=bottom;verticalAlign=top;html=1;shape=mxgraph.basic.patternFillRect;fillStyle=grid;step=5;fillStrokeWidth=0.2;fillStrokeColor=#dddddd;" parent="1" vertex="1">
          <mxGeometry x="155" y="920" width="120" height="40" as="geometry" />
        </mxCell>
        <mxCell id="tIjBGX7rcAunNY12ScB5-62" value="" style="verticalLabelPosition=bottom;verticalAlign=top;html=1;shape=mxgraph.basic.patternFillRect;fillStyle=grid;step=5;fillStrokeWidth=0.2;fillStrokeColor=#dddddd;" parent="1" vertex="1">
          <mxGeometry x="275" y="920" width="120" height="40" as="geometry" />
        </mxCell>
        <mxCell id="tIjBGX7rcAunNY12ScB5-63" value="" style="verticalLabelPosition=bottom;verticalAlign=top;html=1;shape=mxgraph.basic.patternFillRect;fillStyle=grid;step=5;fillStrokeWidth=0.2;fillStrokeColor=#dddddd;" parent="1" vertex="1">
          <mxGeometry x="395" y="920" width="120" height="40" as="geometry" />
        </mxCell>
        <mxCell id="tIjBGX7rcAunNY12ScB5-64" value="" style="verticalLabelPosition=bottom;verticalAlign=top;html=1;shape=mxgraph.basic.patternFillRect;fillStyle=grid;step=5;fillStrokeWidth=0.2;fillStrokeColor=#dddddd;" parent="1" vertex="1">
          <mxGeometry x="515" y="920" width="120" height="40" as="geometry" />
        </mxCell>
        <mxCell id="tIjBGX7rcAunNY12ScB5-65" value="&lt;span style=&quot;text-wrap-mode: wrap; text-decoration-line: underline;&quot;&gt;event_id&lt;/span&gt;" style="text;html=1;align=center;verticalAlign=middle;resizable=0;points=[];autosize=1;strokeColor=none;fillColor=none;fontStyle=0" parent="1" vertex="1">
          <mxGeometry x="65" y="925" width="70" height="30" as="geometry" />
        </mxCell>
        <mxCell id="tIjBGX7rcAunNY12ScB5-66" value="&lt;span style=&quot;text-wrap-mode: wrap;&quot;&gt;event_name&lt;/span&gt;" style="text;html=1;align=center;verticalAlign=middle;resizable=0;points=[];autosize=1;strokeColor=none;fillColor=none;fontStyle=0" parent="1" vertex="1">
          <mxGeometry x="165" y="925" width="90" height="30" as="geometry" />
        </mxCell>
        <mxCell id="tIjBGX7rcAunNY12ScB5-67" value="&lt;span style=&quot;text-wrap-mode: wrap;&quot;&gt;location&lt;/span&gt;" style="text;html=1;align=center;verticalAlign=middle;resizable=0;points=[];autosize=1;strokeColor=none;fillColor=none;fontStyle=0" parent="1" vertex="1">
          <mxGeometry x="305" y="930" width="60" height="30" as="geometry" />
        </mxCell>
        <mxCell id="tIjBGX7rcAunNY12ScB5-69" value="&lt;span style=&quot;text-wrap-mode: wrap;&quot;&gt;date&lt;/span&gt;" style="text;html=1;align=center;verticalAlign=middle;resizable=0;points=[];autosize=1;strokeColor=none;fillColor=none;fontStyle=0" parent="1" vertex="1">
          <mxGeometry x="435" y="925" width="50" height="30" as="geometry" />
        </mxCell>
        <mxCell id="tIjBGX7rcAunNY12ScB5-70" value="&lt;span style=&quot;text-wrap-mode: wrap;&quot;&gt;description&lt;/span&gt;" style="text;html=1;align=center;verticalAlign=middle;resizable=0;points=[];autosize=1;strokeColor=none;fillColor=none;fontStyle=0" parent="1" vertex="1">
          <mxGeometry x="545" y="925" width="80" height="30" as="geometry" />
        </mxCell>
        <mxCell id="tIjBGX7rcAunNY12ScB5-72" value="&lt;h1&gt;&lt;span style=&quot;text-wrap-mode: wrap;&quot;&gt;&lt;font style=&quot;font-size: 24px;&quot;&gt;Staff&lt;/font&gt;&lt;/span&gt;&lt;/h1&gt;" style="text;html=1;align=center;verticalAlign=middle;resizable=0;points=[];autosize=1;strokeColor=none;fillColor=none;fontStyle=0" parent="1" vertex="1">
          <mxGeometry x="55" y="1100" width="80" height="70" as="geometry" />
        </mxCell>
        <mxCell id="tIjBGX7rcAunNY12ScB5-73" value="" style="verticalLabelPosition=bottom;verticalAlign=top;html=1;shape=mxgraph.basic.patternFillRect;fillStyle=grid;step=5;fillStrokeWidth=0.2;fillStrokeColor=#dddddd;" parent="1" vertex="1">
          <mxGeometry x="55" y="1168" width="120" height="40" as="geometry" />
        </mxCell>
        <mxCell id="tIjBGX7rcAunNY12ScB5-74" value="" style="verticalLabelPosition=bottom;verticalAlign=top;html=1;shape=mxgraph.basic.patternFillRect;fillStyle=grid;step=5;fillStrokeWidth=0.2;fillStrokeColor=#dddddd;" parent="1" vertex="1">
          <mxGeometry x="170" y="1168" width="120" height="40" as="geometry" />
        </mxCell>
        <mxCell id="tIjBGX7rcAunNY12ScB5-75" value="" style="verticalLabelPosition=bottom;verticalAlign=top;html=1;shape=mxgraph.basic.patternFillRect;fillStyle=grid;step=5;fillStrokeWidth=0.2;fillStrokeColor=#dddddd;" parent="1" vertex="1">
          <mxGeometry x="290" y="1168" width="120" height="40" as="geometry" />
        </mxCell>
        <mxCell id="tIjBGX7rcAunNY12ScB5-76" value="" style="verticalLabelPosition=bottom;verticalAlign=top;html=1;shape=mxgraph.basic.patternFillRect;fillStyle=grid;step=5;fillStrokeWidth=0.2;fillStrokeColor=#dddddd;" parent="1" vertex="1">
          <mxGeometry x="405" y="1168" width="120" height="40" as="geometry" />
        </mxCell>
        <mxCell id="iMN4HVAPdnXT3awYnCwE-40" value="" style="verticalLabelPosition=bottom;verticalAlign=top;html=1;shape=mxgraph.basic.patternFillRect;fillStyle=grid;step=5;fillStrokeWidth=0.2;fillStrokeColor=#dddddd;" parent="1" vertex="1">
          <mxGeometry x="160" y="1320" width="120" height="40" as="geometry" />
        </mxCell>
        <mxCell id="tIjBGX7rcAunNY12ScB5-77" value="" style="verticalLabelPosition=bottom;verticalAlign=top;html=1;shape=mxgraph.basic.patternFillRect;fillStyle=grid;step=5;fillStrokeWidth=0.2;fillStrokeColor=#dddddd;" parent="1" vertex="1">
          <mxGeometry x="520" y="1168" width="120" height="40" as="geometry" />
        </mxCell>
        <mxCell id="tIjBGX7rcAunNY12ScB5-78" value="" style="verticalLabelPosition=bottom;verticalAlign=top;html=1;shape=mxgraph.basic.patternFillRect;fillStyle=grid;step=5;fillStrokeWidth=0.2;fillStrokeColor=#dddddd;" parent="1" vertex="1">
          <mxGeometry x="640" y="1168" width="120" height="40" as="geometry" />
        </mxCell>
        <mxCell id="iMN4HVAPdnXT3awYnCwE-41" value="" style="verticalLabelPosition=bottom;verticalAlign=top;html=1;shape=mxgraph.basic.patternFillRect;fillStyle=grid;step=5;fillStrokeWidth=0.2;fillStrokeColor=#dddddd;" parent="1" vertex="1">
          <mxGeometry x="40" y="1320" width="130" height="40" as="geometry" />
        </mxCell>
        <mxCell id="iMN4HVAPdnXT3awYnCwE-45" value="" style="verticalLabelPosition=bottom;verticalAlign=top;html=1;shape=mxgraph.basic.patternFillRect;fillStyle=grid;step=5;fillStrokeWidth=0.2;fillStrokeColor=#dddddd;" parent="1" vertex="1">
          <mxGeometry x="160" y="1560" width="120" height="40" as="geometry" />
        </mxCell>
        <mxCell id="tIjBGX7rcAunNY12ScB5-79" value="" style="verticalLabelPosition=bottom;verticalAlign=top;html=1;shape=mxgraph.basic.patternFillRect;fillStyle=grid;step=5;fillStrokeWidth=0.2;fillStrokeColor=#dddddd;" parent="1" vertex="1">
          <mxGeometry x="760" y="1168" width="120" height="40" as="geometry" />
        </mxCell>
        <mxCell id="iMN4HVAPdnXT3awYnCwE-44" value="" style="verticalLabelPosition=bottom;verticalAlign=top;html=1;shape=mxgraph.basic.patternFillRect;fillStyle=grid;step=5;fillStrokeWidth=0.2;fillStrokeColor=#dddddd;" parent="1" vertex="1">
          <mxGeometry x="40" y="1560" width="130" height="40" as="geometry" />
        </mxCell>
        <mxCell id="iMN4HVAPdnXT3awYnCwE-43" value="" style="verticalLabelPosition=bottom;verticalAlign=top;html=1;shape=mxgraph.basic.patternFillRect;fillStyle=grid;step=5;fillStrokeWidth=0.2;fillStrokeColor=#dddddd;" parent="1" vertex="1">
          <mxGeometry x="160" y="1440" width="120" height="40" as="geometry" />
        </mxCell>
        <mxCell id="tIjBGX7rcAunNY12ScB5-81" value="&lt;u style=&quot;text-wrap-mode: wrap;&quot;&gt;Staff_ID&lt;/u&gt;" style="text;html=1;align=center;verticalAlign=middle;resizable=0;points=[];autosize=1;strokeColor=none;fillColor=none;fontStyle=0" parent="1" vertex="1">
          <mxGeometry x="75" y="1173" width="70" height="30" as="geometry" />
        </mxCell>
        <mxCell id="iMN4HVAPdnXT3awYnCwE-42" value="" style="verticalLabelPosition=bottom;verticalAlign=top;html=1;shape=mxgraph.basic.patternFillRect;fillStyle=grid;step=5;fillStrokeWidth=0.2;fillStrokeColor=#dddddd;" parent="1" vertex="1">
          <mxGeometry x="40" y="1440" width="130" height="40" as="geometry" />
        </mxCell>
        <mxCell id="iMN4HVAPdnXT3awYnCwE-47" value="" style="verticalLabelPosition=bottom;verticalAlign=top;html=1;shape=mxgraph.basic.patternFillRect;fillStyle=grid;step=5;fillStrokeWidth=0.2;fillStrokeColor=#dddddd;" parent="1" vertex="1">
          <mxGeometry x="160" y="1680" width="120" height="40" as="geometry" />
        </mxCell>
        <mxCell id="iMN4HVAPdnXT3awYnCwE-48" value="&lt;h1&gt;&lt;span style=&quot;text-wrap-mode: wrap;&quot;&gt;&lt;font style=&quot;font-size: 24px;&quot;&gt;Reserve&lt;/font&gt;&lt;/span&gt;&lt;/h1&gt;" style="text;html=1;align=center;verticalAlign=middle;resizable=0;points=[];autosize=1;strokeColor=none;fillColor=none;fontStyle=0" parent="1" vertex="1">
          <mxGeometry x="45" y="1240" width="120" height="70" as="geometry" />
        </mxCell>
        <mxCell id="iMN4HVAPdnXT3awYnCwE-50" value="&lt;h1&gt;Borrow&lt;/h1&gt;" style="text;html=1;align=center;verticalAlign=middle;resizable=0;points=[];autosize=1;strokeColor=none;fillColor=none;fontStyle=0" parent="1" vertex="1">
          <mxGeometry x="60" y="1490" width="110" height="70" as="geometry" />
        </mxCell>
        <mxCell id="iMN4HVAPdnXT3awYnCwE-49" value="&lt;h1&gt;Renew&lt;/h1&gt;" style="text;html=1;align=center;verticalAlign=middle;resizable=0;points=[];autosize=1;strokeColor=none;fillColor=none;fontStyle=0" parent="1" vertex="1">
          <mxGeometry x="65" y="1370" width="100" height="70" as="geometry" />
        </mxCell>
        <mxCell id="iMN4HVAPdnXT3awYnCwE-51" value="&lt;h1&gt;Return&lt;/h1&gt;" style="text;html=1;align=center;verticalAlign=middle;resizable=0;points=[];autosize=1;strokeColor=none;fillColor=none;fontStyle=0" parent="1" vertex="1">
          <mxGeometry x="65" y="1610" width="100" height="70" as="geometry" />
        </mxCell>
        <mxCell id="tIjBGX7rcAunNY12ScB5-82" value="&lt;span style=&quot;text-wrap-mode: wrap;&quot;&gt;Email&lt;/span&gt;" style="text;html=1;align=center;verticalAlign=middle;resizable=0;points=[];autosize=1;strokeColor=none;fillColor=none;fontStyle=0" parent="1" vertex="1">
          <mxGeometry x="200" y="1170" width="50" height="30" as="geometry" />
        </mxCell>
        <mxCell id="tIjBGX7rcAunNY12ScB5-83" value="&lt;span style=&quot;text-wrap-mode: wrap;&quot;&gt;address&lt;/span&gt;" style="text;html=1;align=center;verticalAlign=middle;resizable=0;points=[];autosize=1;strokeColor=none;fillColor=none;fontStyle=0" parent="1" vertex="1">
          <mxGeometry x="315" y="1178" width="70" height="30" as="geometry" />
        </mxCell>
        <mxCell id="iMN4HVAPdnXT3awYnCwE-52" value="&lt;u style=&quot;text-wrap-mode: wrap;&quot;&gt;Transications_ID&lt;/u&gt;&lt;span style=&quot;text-wrap-mode: wrap;&quot;&gt;&amp;nbsp;(PK)&lt;/span&gt;" style="text;html=1;align=center;verticalAlign=middle;resizable=0;points=[];autosize=1;strokeColor=none;fillColor=none;fontStyle=0" parent="1" vertex="1">
          <mxGeometry x="35" y="1325" width="140" height="30" as="geometry" />
        </mxCell>
        <mxCell id="tIjBGX7rcAunNY12ScB5-84" value="&lt;span style=&quot;text-wrap-mode: wrap;&quot;&gt;phone no&amp;nbsp;&lt;/span&gt;" style="text;html=1;align=center;verticalAlign=middle;resizable=0;points=[];autosize=1;strokeColor=none;fillColor=none;fontStyle=0" parent="1" vertex="1">
          <mxGeometry x="429" y="1178" width="80" height="30" as="geometry" />
        </mxCell>
        <mxCell id="tIjBGX7rcAunNY12ScB5-85" value="&lt;span style=&quot;text-wrap-mode: wrap;&quot;&gt;Sta_Name&lt;/span&gt;" style="text;html=1;align=center;verticalAlign=middle;resizable=0;points=[];autosize=1;strokeColor=none;fillColor=none;fontStyle=0" parent="1" vertex="1">
          <mxGeometry x="540" y="1175" width="80" height="30" as="geometry" />
        </mxCell>
        <mxCell id="iMN4HVAPdnXT3awYnCwE-53" value="&lt;u style=&quot;text-wrap-mode: wrap;&quot;&gt;Transications_ID&lt;/u&gt;&lt;span style=&quot;text-wrap-mode: wrap;&quot;&gt;&amp;nbsp;(PK)&lt;/span&gt;" style="text;html=1;align=center;verticalAlign=middle;resizable=0;points=[];autosize=1;strokeColor=none;fillColor=none;fontStyle=0" parent="1" vertex="1">
          <mxGeometry x="40" y="1440" width="140" height="30" as="geometry" />
        </mxCell>
        <mxCell id="tIjBGX7rcAunNY12ScB5-99" style="edgeStyle=orthogonalEdgeStyle;rounded=0;orthogonalLoop=1;jettySize=auto;html=1;" parent="1" source="iMN4HVAPdnXT3awYnCwE-54" edge="1">
          <mxGeometry relative="1" as="geometry">
            <mxPoint x="20" y="1400" as="targetPoint" />
          </mxGeometry>
        </mxCell>
        <mxCell id="iMN4HVAPdnXT3awYnCwE-54" value="&lt;u style=&quot;text-wrap-mode: wrap;&quot;&gt;Transications_ID&lt;/u&gt;&lt;span style=&quot;text-wrap-mode: wrap;&quot;&gt;&amp;nbsp;(PK)&lt;/span&gt;" style="text;html=1;align=center;verticalAlign=middle;resizable=0;points=[];autosize=1;strokeColor=none;fillColor=none;fontStyle=0" parent="1" vertex="1">
          <mxGeometry x="40" y="1565" width="140" height="30" as="geometry" />
        </mxCell>
        <mxCell id="tIjBGX7rcAunNY12ScB5-86" value="&lt;span style=&quot;text-wrap-mode: wrap;&quot;&gt;hire_date&lt;/span&gt;" style="text;html=1;align=center;verticalAlign=middle;resizable=0;points=[];autosize=1;strokeColor=none;fillColor=none;fontStyle=0" parent="1" vertex="1">
          <mxGeometry x="660" y="1173" width="70" height="30" as="geometry" />
        </mxCell>
        <mxCell id="tIjBGX7rcAunNY12ScB5-87" value="&lt;span style=&quot;text-wrap-mode: wrap;&quot;&gt;Role&lt;/span&gt;" style="text;html=1;align=center;verticalAlign=middle;resizable=0;points=[];autosize=1;strokeColor=none;fillColor=none;fontStyle=0" parent="1" vertex="1">
          <mxGeometry x="795" y="1173" width="50" height="30" as="geometry" />
        </mxCell>
        <mxCell id="tIjBGX7rcAunNY12ScB5-100" style="edgeStyle=orthogonalEdgeStyle;rounded=0;orthogonalLoop=1;jettySize=auto;html=1;" parent="1" source="iMN4HVAPdnXT3awYnCwE-57" edge="1">
          <mxGeometry relative="1" as="geometry">
            <mxPoint x="20" y="1570" as="targetPoint" />
          </mxGeometry>
        </mxCell>
        <mxCell id="iMN4HVAPdnXT3awYnCwE-57" value="" style="verticalLabelPosition=bottom;verticalAlign=top;html=1;shape=mxgraph.basic.patternFillRect;fillStyle=grid;step=5;fillStrokeWidth=0.2;fillStrokeColor=#dddddd;" parent="1" vertex="1">
          <mxGeometry x="40" y="1680" width="130" height="40" as="geometry" />
        </mxCell>
        <mxCell id="iMN4HVAPdnXT3awYnCwE-58" value="&lt;u style=&quot;text-wrap-mode: wrap;&quot;&gt;Transications_ID&lt;/u&gt;&lt;span style=&quot;text-wrap-mode: wrap;&quot;&gt;&amp;nbsp;(PK)&lt;/span&gt;" style="text;html=1;align=center;verticalAlign=middle;resizable=0;points=[];autosize=1;strokeColor=none;fillColor=none;fontStyle=0" parent="1" vertex="1">
          <mxGeometry x="35" y="1685" width="140" height="30" as="geometry" />
        </mxCell>
        <mxCell id="iMN4HVAPdnXT3awYnCwE-62" value="&lt;br style=&quot;forced-color-adjust: none; color: rgb(0, 0, 0); font-family: Helvetica; font-size: 12px; font-style: normal; font-variant-ligatures: normal; font-variant-caps: normal; font-weight: 400; letter-spacing: normal; orphans: 2; text-align: center; text-indent: 0px; text-transform: none; widows: 2; word-spacing: 0px; -webkit-text-stroke-width: 0px; white-space: normal; background-color: rgb(236, 236, 236); text-decoration-thickness: initial; text-decoration-style: initial; text-decoration-color: initial;&quot;&gt;&lt;span style=&quot;color: rgb(0, 0, 0); font-family: Helvetica; font-size: 12px; font-style: normal; font-variant-ligatures: normal; font-variant-caps: normal; font-weight: 400; letter-spacing: normal; orphans: 2; text-align: center; text-indent: 0px; text-transform: none; widows: 2; word-spacing: 0px; -webkit-text-stroke-width: 0px; white-space: normal; background-color: rgb(236, 236, 236); text-decoration-thickness: initial; text-decoration-style: initial; text-decoration-color: initial; display: inline !important; float: none;&quot;&gt;Renewal_Count&lt;/span&gt;&lt;br style=&quot;forced-color-adjust: none; color: rgb(0, 0, 0); font-family: Helvetica; font-size: 12px; font-style: normal; font-variant-ligatures: normal; font-variant-caps: normal; font-weight: 400; letter-spacing: normal; orphans: 2; text-align: center; text-indent: 0px; text-transform: none; widows: 2; word-spacing: 0px; -webkit-text-stroke-width: 0px; white-space: normal; background-color: rgb(236, 236, 236); text-decoration-thickness: initial; text-decoration-style: initial; text-decoration-color: initial;&quot;&gt;" style="text;whiteSpace=wrap;html=1;" parent="1" vertex="1">
          <mxGeometry x="175" y="1670" width="120" height="50" as="geometry" />
        </mxCell>
        <mxCell id="iMN4HVAPdnXT3awYnCwE-60" value="&lt;span style=&quot;color: rgb(0, 0, 0); font-family: Helvetica; font-size: 12px; font-style: normal; font-variant-ligatures: normal; font-variant-caps: normal; font-weight: 400; letter-spacing: normal; orphans: 2; text-align: center; text-indent: 0px; text-transform: none; widows: 2; word-spacing: 0px; -webkit-text-stroke-width: 0px; white-space: normal; background-color: rgb(236, 236, 236); text-decoration-thickness: initial; text-decoration-style: initial; text-decoration-color: initial; display: inline !important; float: none;&quot;&gt;Loan_Period&lt;/span&gt;" style="text;whiteSpace=wrap;html=1;" parent="1" vertex="1">
          <mxGeometry x="180" y="1445" width="100" height="30" as="geometry" />
        </mxCell>
        <mxCell id="iMN4HVAPdnXT3awYnCwE-63" value="" style="verticalLabelPosition=bottom;verticalAlign=top;html=1;shape=mxgraph.basic.patternFillRect;fillStyle=grid;step=5;fillStrokeWidth=0.2;fillStrokeColor=#dddddd;" parent="1" vertex="1">
          <mxGeometry x="280" y="1680" width="120" height="40" as="geometry" />
        </mxCell>
        <mxCell id="iMN4HVAPdnXT3awYnCwE-61" value="&lt;span style=&quot;color: rgb(0, 0, 0); font-family: Helvetica; font-size: 12px; font-style: normal; font-variant-ligatures: normal; font-variant-caps: normal; font-weight: 400; letter-spacing: normal; orphans: 2; text-align: center; text-indent: 0px; text-transform: none; widows: 2; word-spacing: 0px; -webkit-text-stroke-width: 0px; white-space: normal; background-color: rgb(236, 236, 236); text-decoration-thickness: initial; text-decoration-style: initial; text-decoration-color: initial; display: inline !important; float: none;&quot;&gt;Fine_Amount&lt;/span&gt;" style="text;whiteSpace=wrap;html=1;" parent="1" vertex="1">
          <mxGeometry x="180" y="1565" width="100" height="40" as="geometry" />
        </mxCell>
        <mxCell id="iMN4HVAPdnXT3awYnCwE-59" value="&lt;span style=&quot;color: rgb(0, 0, 0); font-family: Helvetica; font-size: 12px; font-style: normal; font-variant-ligatures: normal; font-variant-caps: normal; font-weight: 400; letter-spacing: normal; orphans: 2; text-align: center; text-indent: 0px; text-transform: none; widows: 2; word-spacing: 0px; -webkit-text-stroke-width: 0px; white-space: normal; background-color: rgb(236, 236, 236); text-decoration-thickness: initial; text-decoration-style: initial; text-decoration-color: initial; display: inline !important; float: none;&quot;&gt;Pickup_Date&lt;/span&gt;" style="text;whiteSpace=wrap;html=1;" parent="1" vertex="1">
          <mxGeometry x="180" y="1330" width="100" height="40" as="geometry" />
        </mxCell>
        <mxCell id="iMN4HVAPdnXT3awYnCwE-64" value="&lt;span style=&quot;color: rgb(0, 0, 0); font-family: Helvetica; font-size: 12px; font-style: normal; font-variant-ligatures: normal; font-variant-caps: normal; font-weight: 400; letter-spacing: normal; orphans: 2; text-align: center; text-indent: 0px; text-transform: none; widows: 2; word-spacing: 0px; -webkit-text-stroke-width: 0px; white-space: normal; background-color: rgb(236, 236, 236); text-decoration-thickness: initial; text-decoration-style: initial; text-decoration-color: initial; display: inline !important; float: none;&quot;&gt;Previous_Due_Date&lt;/span&gt;" style="text;whiteSpace=wrap;html=1;" parent="1" vertex="1">
          <mxGeometry x="284" y="1685" width="140" height="40" as="geometry" />
        </mxCell>
        <mxCell id="tIjBGX7rcAunNY12ScB5-94" value="&lt;span style=&quot;text-wrap-mode: wrap;&quot;&gt;Transaction_type&lt;/span&gt;" style="text;html=1;align=center;verticalAlign=middle;resizable=0;points=[];autosize=1;strokeColor=none;fillColor=none;fontStyle=0" parent="1" vertex="1">
          <mxGeometry x="395" y="205" width="120" height="30" as="geometry" />
        </mxCell>
        <mxCell id="tIjBGX7rcAunNY12ScB5-97" style="edgeStyle=orthogonalEdgeStyle;rounded=0;orthogonalLoop=1;jettySize=auto;html=1;exitX=0.5;exitY=1;exitDx=0;exitDy=0;exitPerimeter=0;entryX=0;entryY=0.75;entryDx=0;entryDy=0;entryPerimeter=0;" parent="1" source="iMN4HVAPdnXT3awYnCwE-41" target="yXZyFi9JdaWAmMFbI6_c-18" edge="1">
          <mxGeometry relative="1" as="geometry" />
        </mxCell>
        <mxCell id="tIjBGX7rcAunNY12ScB5-98" style="edgeStyle=orthogonalEdgeStyle;rounded=0;orthogonalLoop=1;jettySize=auto;html=1;exitX=0.5;exitY=1;exitDx=0;exitDy=0;exitPerimeter=0;entryX=0;entryY=0.25;entryDx=0;entryDy=0;entryPerimeter=0;" parent="1" source="iMN4HVAPdnXT3awYnCwE-42" target="yXZyFi9JdaWAmMFbI6_c-18" edge="1">
          <mxGeometry relative="1" as="geometry" />
        </mxCell>
        <mxCell id="yXZyFi9JdaWAmMFbI6_c-8" value="" style="verticalLabelPosition=bottom;verticalAlign=top;html=1;shape=mxgraph.basic.patternFillRect;fillStyle=grid;step=5;fillStrokeWidth=0.2;fillStrokeColor=#dddddd;" parent="1" vertex="1">
          <mxGeometry x="280" y="80" width="120" height="40" as="geometry" />
        </mxCell>
        <mxCell id="esSW1i_ceitW5YK9w1PT-2" value="" style="verticalLabelPosition=bottom;verticalAlign=top;html=1;shape=mxgraph.basic.patternFillRect;fillStyle=grid;step=5;fillStrokeWidth=0.2;fillStrokeColor=#dddddd;" parent="1" vertex="1">
          <mxGeometry x="280" y="1320" width="120" height="40" as="geometry" />
        </mxCell>
        <mxCell id="esSW1i_ceitW5YK9w1PT-3" value="" style="verticalLabelPosition=bottom;verticalAlign=top;html=1;shape=mxgraph.basic.patternFillRect;fillStyle=grid;step=5;fillStrokeWidth=0.2;fillStrokeColor=#dddddd;" parent="1" vertex="1">
          <mxGeometry x="280" y="1440" width="120" height="40" as="geometry" />
        </mxCell>
        <mxCell id="esSW1i_ceitW5YK9w1PT-4" value="" style="verticalLabelPosition=bottom;verticalAlign=top;html=1;shape=mxgraph.basic.patternFillRect;fillStyle=grid;step=5;fillStrokeWidth=0.2;fillStrokeColor=#dddddd;" parent="1" vertex="1">
          <mxGeometry x="280" y="1560" width="120" height="40" as="geometry" />
        </mxCell>
        <mxCell id="esSW1i_ceitW5YK9w1PT-5" value="" style="verticalLabelPosition=bottom;verticalAlign=top;html=1;shape=mxgraph.basic.patternFillRect;fillStyle=grid;step=5;fillStrokeWidth=0.2;fillStrokeColor=#dddddd;" parent="1" vertex="1">
          <mxGeometry x="400" y="1680" width="120" height="40" as="geometry" />
        </mxCell>
        <mxCell id="esSW1i_ceitW5YK9w1PT-6" value="&lt;span style=&quot;text-wrap-mode: wrap;&quot;&gt;fine_total&lt;/span&gt;" style="text;html=1;align=center;verticalAlign=middle;resizable=0;points=[];autosize=1;strokeColor=none;fillColor=none;fontStyle=0" parent="1" vertex="1">
          <mxGeometry x="305" y="85" width="70" height="30" as="geometry" />
        </mxCell>
        <mxCell id="esSW1i_ceitW5YK9w1PT-7" value="" style="verticalLabelPosition=bottom;verticalAlign=top;html=1;shape=mxgraph.basic.patternFillRect;fillStyle=grid;step=5;fillStrokeWidth=0.2;fillStrokeColor=#dddddd;" parent="1" vertex="1">
          <mxGeometry x="399" y="1320" width="120" height="40" as="geometry" />
        </mxCell>
        <mxCell id="esSW1i_ceitW5YK9w1PT-8" value="" style="verticalLabelPosition=bottom;verticalAlign=top;html=1;shape=mxgraph.basic.patternFillRect;fillStyle=grid;step=5;fillStrokeWidth=0.2;fillStrokeColor=#dddddd;" parent="1" vertex="1">
          <mxGeometry x="399" y="1440" width="120" height="40" as="geometry" />
        </mxCell>
        <mxCell id="esSW1i_ceitW5YK9w1PT-9" value="" style="verticalLabelPosition=bottom;verticalAlign=top;html=1;shape=mxgraph.basic.patternFillRect;fillStyle=grid;step=5;fillStrokeWidth=0.2;fillStrokeColor=#dddddd;" parent="1" vertex="1">
          <mxGeometry x="400" y="1560" width="120" height="40" as="geometry" />
        </mxCell>
        <mxCell id="esSW1i_ceitW5YK9w1PT-10" value="" style="verticalLabelPosition=bottom;verticalAlign=top;html=1;shape=mxgraph.basic.patternFillRect;fillStyle=grid;step=5;fillStrokeWidth=0.2;fillStrokeColor=#dddddd;" parent="1" vertex="1">
          <mxGeometry x="520" y="1680" width="120" height="40" as="geometry" />
        </mxCell>
        <mxCell id="esSW1i_ceitW5YK9w1PT-11" value="" style="verticalLabelPosition=bottom;verticalAlign=top;html=1;shape=mxgraph.basic.patternFillRect;fillStyle=grid;step=5;fillStrokeWidth=0.2;fillStrokeColor=#dddddd;" parent="1" vertex="1">
          <mxGeometry x="520" y="1320" width="120" height="40" as="geometry" />
        </mxCell>
        <mxCell id="esSW1i_ceitW5YK9w1PT-12" value="" style="verticalLabelPosition=bottom;verticalAlign=top;html=1;shape=mxgraph.basic.patternFillRect;fillStyle=grid;step=5;fillStrokeWidth=0.2;fillStrokeColor=#dddddd;" parent="1" vertex="1">
          <mxGeometry x="520" y="1440" width="120" height="40" as="geometry" />
        </mxCell>
        <mxCell id="esSW1i_ceitW5YK9w1PT-13" value="" style="verticalLabelPosition=bottom;verticalAlign=top;html=1;shape=mxgraph.basic.patternFillRect;fillStyle=grid;step=5;fillStrokeWidth=0.2;fillStrokeColor=#dddddd;" parent="1" vertex="1">
          <mxGeometry x="520" y="1560" width="120" height="40" as="geometry" />
        </mxCell>
        <mxCell id="esSW1i_ceitW5YK9w1PT-14" value="" style="verticalLabelPosition=bottom;verticalAlign=top;html=1;shape=mxgraph.basic.patternFillRect;fillStyle=grid;step=5;fillStrokeWidth=0.2;fillStrokeColor=#dddddd;" parent="1" vertex="1">
          <mxGeometry x="640" y="1680" width="120" height="40" as="geometry" />
        </mxCell>
        <mxCell id="esSW1i_ceitW5YK9w1PT-15" value="&lt;span style=&quot;text-wrap-mode: wrap;&quot;&gt;Transactions_Date&lt;/span&gt;" style="text;html=1;align=center;verticalAlign=middle;resizable=0;points=[];autosize=1;strokeColor=none;fillColor=none;fontStyle=0" parent="1" vertex="1">
          <mxGeometry x="280" y="1330" width="120" height="30" as="geometry" />
        </mxCell>
        <mxCell id="esSW1i_ceitW5YK9w1PT-16" value="&lt;span style=&quot;text-wrap-mode: wrap;&quot;&gt;Transactions_Date&lt;/span&gt;" style="text;html=1;align=center;verticalAlign=middle;resizable=0;points=[];autosize=1;strokeColor=none;fillColor=none;fontStyle=0" parent="1" vertex="1">
          <mxGeometry x="285" y="1445" width="120" height="30" as="geometry" />
        </mxCell>
        <mxCell id="esSW1i_ceitW5YK9w1PT-17" value="&lt;span style=&quot;text-wrap-mode: wrap;&quot;&gt;Transactions_Date&lt;/span&gt;" style="text;html=1;align=center;verticalAlign=middle;resizable=0;points=[];autosize=1;strokeColor=none;fillColor=none;fontStyle=0" parent="1" vertex="1">
          <mxGeometry x="280" y="1565" width="120" height="30" as="geometry" />
        </mxCell>
        <mxCell id="esSW1i_ceitW5YK9w1PT-18" value="&lt;span style=&quot;text-wrap-mode: wrap;&quot;&gt;Transactions_Date&lt;/span&gt;" style="text;html=1;align=center;verticalAlign=middle;resizable=0;points=[];autosize=1;strokeColor=none;fillColor=none;fontStyle=0" parent="1" vertex="1">
          <mxGeometry x="399" y="1685" width="120" height="30" as="geometry" />
        </mxCell>
        <mxCell id="esSW1i_ceitW5YK9w1PT-19" value="&lt;span style=&quot;text-wrap-mode: wrap;&quot;&gt;Due date&amp;nbsp;&lt;/span&gt;" style="text;html=1;align=center;verticalAlign=middle;resizable=0;points=[];autosize=1;strokeColor=none;fillColor=none;fontStyle=0" parent="1" vertex="1">
          <mxGeometry x="410" y="1325" width="80" height="30" as="geometry" />
        </mxCell>
        <mxCell id="esSW1i_ceitW5YK9w1PT-20" value="&lt;span style=&quot;text-wrap-mode: wrap;&quot;&gt;Due date&amp;nbsp;&lt;/span&gt;" style="text;html=1;align=center;verticalAlign=middle;resizable=0;points=[];autosize=1;strokeColor=none;fillColor=none;fontStyle=0" parent="1" vertex="1">
          <mxGeometry x="420" y="1445" width="80" height="30" as="geometry" />
        </mxCell>
        <mxCell id="esSW1i_ceitW5YK9w1PT-21" value="&lt;span style=&quot;text-wrap-mode: wrap;&quot;&gt;Due date&amp;nbsp;&lt;/span&gt;" style="text;html=1;align=center;verticalAlign=middle;resizable=0;points=[];autosize=1;strokeColor=none;fillColor=none;fontStyle=0" parent="1" vertex="1">
          <mxGeometry x="420" y="1565" width="80" height="30" as="geometry" />
        </mxCell>
        <mxCell id="esSW1i_ceitW5YK9w1PT-22" value="&lt;span style=&quot;text-wrap-mode: wrap;&quot;&gt;Due date&amp;nbsp;&lt;/span&gt;" style="text;html=1;align=center;verticalAlign=middle;resizable=0;points=[];autosize=1;strokeColor=none;fillColor=none;fontStyle=0" parent="1" vertex="1">
          <mxGeometry x="545" y="1685" width="80" height="30" as="geometry" />
        </mxCell>
        <mxCell id="esSW1i_ceitW5YK9w1PT-23" value="&lt;span style=&quot;text-wrap-mode: wrap;&quot;&gt;Transaction_type&lt;/span&gt;" style="text;html=1;align=center;verticalAlign=middle;resizable=0;points=[];autosize=1;strokeColor=none;fillColor=none;fontStyle=0" parent="1" vertex="1">
          <mxGeometry x="514" y="1325" width="120" height="30" as="geometry" />
        </mxCell>
        <mxCell id="esSW1i_ceitW5YK9w1PT-24" value="&lt;span style=&quot;text-wrap-mode: wrap;&quot;&gt;Transaction_type&lt;/span&gt;" style="text;html=1;align=center;verticalAlign=middle;resizable=0;points=[];autosize=1;strokeColor=none;fillColor=none;fontStyle=0" parent="1" vertex="1">
          <mxGeometry x="525" y="1445" width="120" height="30" as="geometry" />
        </mxCell>
        <mxCell id="esSW1i_ceitW5YK9w1PT-25" value="&lt;span style=&quot;text-wrap-mode: wrap;&quot;&gt;Transaction_type&lt;/span&gt;" style="text;html=1;align=center;verticalAlign=middle;resizable=0;points=[];autosize=1;strokeColor=none;fillColor=none;fontStyle=0" parent="1" vertex="1">
          <mxGeometry x="520" y="1565" width="120" height="30" as="geometry" />
        </mxCell>
        <mxCell id="esSW1i_ceitW5YK9w1PT-26" value="&lt;span style=&quot;text-wrap-mode: wrap;&quot;&gt;Transaction_type&lt;/span&gt;" style="text;html=1;align=center;verticalAlign=middle;resizable=0;points=[];autosize=1;strokeColor=none;fillColor=none;fontStyle=0" parent="1" vertex="1">
          <mxGeometry x="640" y="1690" width="120" height="30" as="geometry" />
        </mxCell>
        <mxCell id="esSW1i_ceitW5YK9w1PT-27" value="" style="verticalLabelPosition=bottom;verticalAlign=top;html=1;shape=mxgraph.basic.patternFillRect;fillStyle=grid;step=5;fillStrokeWidth=0.2;fillStrokeColor=#dddddd;" parent="1" vertex="1">
          <mxGeometry x="40" y="1770" width="130" height="40" as="geometry" />
        </mxCell>
        <mxCell id="esSW1i_ceitW5YK9w1PT-28" value="" style="verticalLabelPosition=bottom;verticalAlign=top;html=1;shape=mxgraph.basic.patternFillRect;fillStyle=grid;step=5;fillStrokeWidth=0.2;fillStrokeColor=#dddddd;" parent="1" vertex="1">
          <mxGeometry x="170" y="1770" width="130" height="40" as="geometry" />
        </mxCell>
        <mxCell id="esSW1i_ceitW5YK9w1PT-29" value="&lt;h1&gt;member-phone&lt;/h1&gt;" style="text;html=1;align=center;verticalAlign=middle;resizable=0;points=[];autosize=1;strokeColor=none;fillColor=none;fontStyle=0" parent="1" vertex="1">
          <mxGeometry x="10" y="1710" width="200" height="70" as="geometry" />
        </mxCell>
        <mxCell id="esSW1i_ceitW5YK9w1PT-31" value="&lt;span style=&quot;text-wrap-mode: wrap;&quot;&gt;phone no&amp;nbsp;&lt;/span&gt;" style="text;html=1;align=center;verticalAlign=middle;resizable=0;points=[];autosize=1;strokeColor=none;fillColor=none;fontStyle=0" parent="1" vertex="1">
          <mxGeometry x="185" y="1775" width="80" height="30" as="geometry" />
        </mxCell>
        <mxCell id="esSW1i_ceitW5YK9w1PT-32" value="" style="line;strokeWidth=1;rotatable=0;dashed=0;labelPosition=right;align=left;verticalAlign=middle;spacingTop=0;spacingLeft=6;points=[];portConstraint=eastwest;" parent="1" vertex="1">
          <mxGeometry x="70" y="1795" width="180" height="10" as="geometry" />
        </mxCell>
        <mxCell id="esSW1i_ceitW5YK9w1PT-33" value="&lt;span style=&quot;text-wrap-mode: wrap;&quot;&gt;MemberID&lt;/span&gt;" style="text;html=1;align=center;verticalAlign=middle;resizable=0;points=[];autosize=1;strokeColor=none;fillColor=none;fontStyle=0" parent="1" vertex="1">
          <mxGeometry x="60" y="1775" width="80" height="30" as="geometry" />
        </mxCell>
        <mxCell id="esSW1i_ceitW5YK9w1PT-35" value="" style="verticalLabelPosition=bottom;verticalAlign=top;html=1;shape=mxgraph.basic.patternFillRect;fillStyle=grid;step=5;fillStrokeWidth=0.2;fillStrokeColor=#dddddd;" parent="1" vertex="1">
          <mxGeometry x="35" y="1870" width="130" height="40" as="geometry" />
        </mxCell>
        <mxCell id="esSW1i_ceitW5YK9w1PT-36" value="" style="verticalLabelPosition=bottom;verticalAlign=top;html=1;shape=mxgraph.basic.patternFillRect;fillStyle=grid;step=5;fillStrokeWidth=0.2;fillStrokeColor=#dddddd;" parent="1" vertex="1">
          <mxGeometry x="165" y="1870" width="130" height="40" as="geometry" />
        </mxCell>
        <mxCell id="d_q-ORB5m0dD9u2W9F5y-1" value="&lt;h1&gt;staff-phone&lt;/h1&gt;" style="text;html=1;align=center;verticalAlign=middle;resizable=0;points=[];autosize=1;strokeColor=none;fillColor=none;fontStyle=0" parent="1" vertex="1">
          <mxGeometry x="25" y="1805" width="150" height="70" as="geometry" />
        </mxCell>
        <mxCell id="d_q-ORB5m0dD9u2W9F5y-2" value="&lt;span style=&quot;text-wrap-mode: wrap;&quot;&gt;phone no&amp;nbsp;&lt;/span&gt;" style="text;html=1;align=center;verticalAlign=middle;resizable=0;points=[];autosize=1;strokeColor=none;fillColor=none;fontStyle=0" parent="1" vertex="1">
          <mxGeometry x="195" y="1875" width="80" height="30" as="geometry" />
        </mxCell>
        <mxCell id="d_q-ORB5m0dD9u2W9F5y-4" value="" style="line;strokeWidth=1;rotatable=0;dashed=0;labelPosition=right;align=left;verticalAlign=middle;spacingTop=0;spacingLeft=6;points=[];portConstraint=eastwest;" parent="1" vertex="1">
          <mxGeometry x="70" y="1900" width="180" height="10" as="geometry" />
        </mxCell>
        <mxCell id="BZSTbK-Lmsxj-4GkQFBk-1" value="&lt;span style=&quot;text-wrap-mode: wrap;&quot;&gt;Staff_ID&lt;/span&gt;" style="text;html=1;align=center;verticalAlign=middle;resizable=0;points=[];autosize=1;strokeColor=none;fillColor=none;fontStyle=0" parent="1" vertex="1">
          <mxGeometry x="70" y="1880" width="70" height="30" as="geometry" />
        </mxCell>
        <mxCell id="BZSTbK-Lmsxj-4GkQFBk-2" style="edgeStyle=orthogonalEdgeStyle;rounded=0;orthogonalLoop=1;jettySize=auto;html=1;exitX=0;exitY=0.5;exitDx=0;exitDy=0;exitPerimeter=0;entryX=0;entryY=0.75;entryDx=0;entryDy=0;entryPerimeter=0;" parent="1" source="esSW1i_ceitW5YK9w1PT-27" target="yXZyFi9JdaWAmMFbI6_c-30" edge="1">
          <mxGeometry relative="1" as="geometry" />
        </mxCell>
        <mxCell id="BZSTbK-Lmsxj-4GkQFBk-3" style="edgeStyle=orthogonalEdgeStyle;rounded=0;orthogonalLoop=1;jettySize=auto;html=1;exitX=0;exitY=0.5;exitDx=0;exitDy=0;exitPerimeter=0;entryX=0;entryY=0.5;entryDx=0;entryDy=0;entryPerimeter=0;" parent="1" source="esSW1i_ceitW5YK9w1PT-35" target="tIjBGX7rcAunNY12ScB5-73" edge="1">
          <mxGeometry relative="1" as="geometry" />
        </mxCell>
        <mxCell id="BZSTbK-Lmsxj-4GkQFBk-5" value="" style="verticalLabelPosition=bottom;verticalAlign=top;html=1;shape=mxgraph.basic.patternFillRect;fillStyle=grid;step=5;fillStrokeWidth=0.2;fillStrokeColor=#dddddd;" parent="1" vertex="1">
          <mxGeometry x="520" y="320" width="120" height="40" as="geometry" />
        </mxCell>
        <mxCell id="BZSTbK-Lmsxj-4GkQFBk-6" value="&lt;u style=&quot;text-wrap-mode: wrap;&quot;&gt;Transications_ID(FK)&lt;/u&gt;" style="text;html=1;align=center;verticalAlign=middle;resizable=0;points=[];autosize=1;strokeColor=none;fillColor=none;fontStyle=0" parent="1" vertex="1">
          <mxGeometry x="509" y="325" width="140" height="30" as="geometry" />
        </mxCell>
        <mxCell id="BZSTbK-Lmsxj-4GkQFBk-7" value="" style="verticalLabelPosition=bottom;verticalAlign=top;html=1;shape=mxgraph.basic.patternFillRect;fillStyle=grid;step=5;fillStrokeWidth=0.2;fillStrokeColor=#dddddd;" parent="1" vertex="1">
          <mxGeometry x="25" y="1980" width="130" height="40" as="geometry" />
        </mxCell>
        <mxCell id="BZSTbK-Lmsxj-4GkQFBk-8" value="" style="verticalLabelPosition=bottom;verticalAlign=top;html=1;shape=mxgraph.basic.patternFillRect;fillStyle=grid;step=5;fillStrokeWidth=0.2;fillStrokeColor=#dddddd;" parent="1" vertex="1">
          <mxGeometry x="155" y="1980" width="130" height="40" as="geometry" />
        </mxCell>
        <mxCell id="BZSTbK-Lmsxj-4GkQFBk-9" value="&lt;h1&gt;event-member&lt;/h1&gt;" style="text;html=1;align=center;verticalAlign=middle;resizable=0;points=[];autosize=1;strokeColor=none;fillColor=none;fontStyle=0" parent="1" vertex="1">
          <mxGeometry x="15" y="1920" width="190" height="70" as="geometry" />
        </mxCell>
        <mxCell id="BZSTbK-Lmsxj-4GkQFBk-10" value="&lt;span style=&quot;text-wrap-mode: wrap;&quot;&gt;MemberID&lt;/span&gt;" style="text;html=1;align=center;verticalAlign=middle;resizable=0;points=[];autosize=1;strokeColor=none;fillColor=none;fontStyle=0" parent="1" vertex="1">
          <mxGeometry x="50" y="1985" width="80" height="30" as="geometry" />
        </mxCell>
        <mxCell id="BZSTbK-Lmsxj-4GkQFBk-11" value="&lt;span style=&quot;text-wrap-mode: wrap;&quot;&gt;event_id&lt;/span&gt;" style="text;html=1;align=center;verticalAlign=middle;resizable=0;points=[];autosize=1;strokeColor=none;fillColor=none;fontStyle=0" parent="1" vertex="1">
          <mxGeometry x="190" y="1985" width="70" height="30" as="geometry" />
        </mxCell>
        <mxCell id="BZSTbK-Lmsxj-4GkQFBk-12" value="" style="line;strokeWidth=1;rotatable=0;dashed=0;labelPosition=right;align=left;verticalAlign=middle;spacingTop=0;spacingLeft=6;points=[];portConstraint=eastwest;" parent="1" vertex="1">
          <mxGeometry x="70" y="2005" width="180" height="10" as="geometry" />
        </mxCell>
        <mxCell id="BZSTbK-Lmsxj-4GkQFBk-13" value="&lt;h1&gt;event-staff&lt;/h1&gt;" style="text;html=1;align=center;verticalAlign=middle;resizable=0;points=[];autosize=1;strokeColor=none;fillColor=none;fontStyle=0" parent="1" vertex="1">
          <mxGeometry x="5" y="2050" width="140" height="70" as="geometry" />
        </mxCell>
        <mxCell id="BZSTbK-Lmsxj-4GkQFBk-14" value="" style="verticalLabelPosition=bottom;verticalAlign=top;html=1;shape=mxgraph.basic.patternFillRect;fillStyle=grid;step=5;fillStrokeWidth=0.2;fillStrokeColor=#dddddd;" parent="1" vertex="1">
          <mxGeometry x="20" y="2120" width="130" height="40" as="geometry" />
        </mxCell>
        <mxCell id="BZSTbK-Lmsxj-4GkQFBk-15" value="" style="verticalLabelPosition=bottom;verticalAlign=top;html=1;shape=mxgraph.basic.patternFillRect;fillStyle=grid;step=5;fillStrokeWidth=0.2;fillStrokeColor=#dddddd;" parent="1" vertex="1">
          <mxGeometry x="150" y="2120" width="130" height="40" as="geometry" />
        </mxCell>
        <mxCell id="BZSTbK-Lmsxj-4GkQFBk-16" value="&lt;span style=&quot;text-wrap-mode: wrap;&quot;&gt;event_id&lt;/span&gt;" style="text;html=1;align=center;verticalAlign=middle;resizable=0;points=[];autosize=1;strokeColor=none;fillColor=none;fontStyle=0" parent="1" vertex="1">
          <mxGeometry x="190" y="2125" width="70" height="30" as="geometry" />
        </mxCell>
        <mxCell id="BZSTbK-Lmsxj-4GkQFBk-17" value="&lt;span style=&quot;text-wrap-mode: wrap;&quot;&gt;Staff_ID&lt;/span&gt;" style="text;html=1;align=center;verticalAlign=middle;resizable=0;points=[];autosize=1;strokeColor=none;fillColor=none;fontStyle=0" parent="1" vertex="1">
          <mxGeometry x="55" y="2125" width="70" height="30" as="geometry" />
        </mxCell>
        <mxCell id="BZSTbK-Lmsxj-4GkQFBk-18" value="" style="line;strokeWidth=1;rotatable=0;dashed=0;labelPosition=right;align=left;verticalAlign=middle;spacingTop=0;spacingLeft=6;points=[];portConstraint=eastwest;" parent="1" vertex="1">
          <mxGeometry x="65" y="2145" width="180" height="10" as="geometry" />
        </mxCell>
        <mxCell id="BZSTbK-Lmsxj-4GkQFBk-19" value="&lt;h1&gt;transaction-staff&lt;/h1&gt;" style="text;html=1;align=center;verticalAlign=middle;resizable=0;points=[];autosize=1;strokeColor=none;fillColor=none;fontStyle=0" parent="1" vertex="1">
          <mxGeometry x="5" y="2170" width="210" height="70" as="geometry" />
        </mxCell>
        <mxCell id="BZSTbK-Lmsxj-4GkQFBk-20" value="" style="verticalLabelPosition=bottom;verticalAlign=top;html=1;shape=mxgraph.basic.patternFillRect;fillStyle=grid;step=5;fillStrokeWidth=0.2;fillStrokeColor=#dddddd;" parent="1" vertex="1">
          <mxGeometry x="25" y="2220" width="130" height="40" as="geometry" />
        </mxCell>
        <mxCell id="BZSTbK-Lmsxj-4GkQFBk-68" style="edgeStyle=orthogonalEdgeStyle;rounded=0;orthogonalLoop=1;jettySize=auto;html=1;exitX=1;exitY=0.5;exitDx=0;exitDy=0;exitPerimeter=0;" parent="1" source="BZSTbK-Lmsxj-4GkQFBk-21" edge="1">
          <mxGeometry relative="1" as="geometry">
            <mxPoint x="810" y="2180" as="targetPoint" />
          </mxGeometry>
        </mxCell>
        <mxCell id="BZSTbK-Lmsxj-4GkQFBk-21" value="" style="verticalLabelPosition=bottom;verticalAlign=top;html=1;shape=mxgraph.basic.patternFillRect;fillStyle=grid;step=5;fillStrokeWidth=0.2;fillStrokeColor=#dddddd;" parent="1" vertex="1">
          <mxGeometry x="155" y="2220" width="130" height="40" as="geometry" />
        </mxCell>
        <mxCell id="BZSTbK-Lmsxj-4GkQFBk-22" value="&lt;span style=&quot;text-wrap-mode: wrap;&quot;&gt;Staff_ID&lt;/span&gt;" style="text;html=1;align=center;verticalAlign=middle;resizable=0;points=[];autosize=1;strokeColor=none;fillColor=none;fontStyle=0" parent="1" vertex="1">
          <mxGeometry x="190" y="2225" width="70" height="30" as="geometry" />
        </mxCell>
        <mxCell id="BZSTbK-Lmsxj-4GkQFBk-24" value="&lt;span style=&quot;text-wrap-mode: wrap;&quot;&gt;Transaction_ID&lt;/span&gt;" style="text;html=1;align=center;verticalAlign=middle;resizable=0;points=[];autosize=1;strokeColor=none;fillColor=none;fontStyle=0" parent="1" vertex="1">
          <mxGeometry x="35" y="2225" width="100" height="30" as="geometry" />
        </mxCell>
        <mxCell id="BZSTbK-Lmsxj-4GkQFBk-25" value="" style="line;strokeWidth=1;rotatable=0;dashed=0;labelPosition=right;align=left;verticalAlign=middle;spacingTop=0;spacingLeft=6;points=[];portConstraint=eastwest;" parent="1" vertex="1">
          <mxGeometry x="60" y="2245" width="190" height="10" as="geometry" />
        </mxCell>
        <mxCell id="BZSTbK-Lmsxj-4GkQFBk-27" value="&lt;h1&gt;transaction-Book&lt;/h1&gt;" style="text;html=1;align=center;verticalAlign=middle;resizable=0;points=[];autosize=1;strokeColor=none;fillColor=none;fontStyle=0" parent="1" vertex="1">
          <mxGeometry x="-5" y="2260" width="220" height="70" as="geometry" />
        </mxCell>
        <mxCell id="BZSTbK-Lmsxj-4GkQFBk-70" style="edgeStyle=orthogonalEdgeStyle;rounded=0;orthogonalLoop=1;jettySize=auto;html=1;exitX=0;exitY=0.5;exitDx=0;exitDy=0;exitPerimeter=0;" parent="1" source="BZSTbK-Lmsxj-4GkQFBk-28" edge="1">
          <mxGeometry relative="1" as="geometry">
            <mxPoint x="-40" y="2230" as="targetPoint" />
          </mxGeometry>
        </mxCell>
        <mxCell id="BZSTbK-Lmsxj-4GkQFBk-28" value="" style="verticalLabelPosition=bottom;verticalAlign=top;html=1;shape=mxgraph.basic.patternFillRect;fillStyle=grid;step=5;fillStrokeWidth=0.2;fillStrokeColor=#dddddd;" parent="1" vertex="1">
          <mxGeometry x="25" y="2310" width="130" height="40" as="geometry" />
        </mxCell>
        <mxCell id="BZSTbK-Lmsxj-4GkQFBk-71" style="edgeStyle=orthogonalEdgeStyle;rounded=0;orthogonalLoop=1;jettySize=auto;html=1;exitX=1;exitY=0.5;exitDx=0;exitDy=0;exitPerimeter=0;" parent="1" source="BZSTbK-Lmsxj-4GkQFBk-29" target="yXZyFi9JdaWAmMFbI6_c-58" edge="1">
          <mxGeometry relative="1" as="geometry">
            <Array as="points">
              <mxPoint x="1060" y="2330" />
              <mxPoint x="1060" y="630" />
              <mxPoint x="95" y="630" />
            </Array>
          </mxGeometry>
        </mxCell>
        <mxCell id="BZSTbK-Lmsxj-4GkQFBk-29" value="" style="verticalLabelPosition=bottom;verticalAlign=top;html=1;shape=mxgraph.basic.patternFillRect;fillStyle=grid;step=5;fillStrokeWidth=0.2;fillStrokeColor=#dddddd;" parent="1" vertex="1">
          <mxGeometry x="155" y="2310" width="130" height="40" as="geometry" />
        </mxCell>
        <mxCell id="BZSTbK-Lmsxj-4GkQFBk-30" value="&lt;span style=&quot;text-wrap-mode: wrap;&quot;&gt;Transaction_ID&lt;/span&gt;" style="text;html=1;align=center;verticalAlign=middle;resizable=0;points=[];autosize=1;strokeColor=none;fillColor=none;fontStyle=0" parent="1" vertex="1">
          <mxGeometry x="45" y="2315" width="100" height="30" as="geometry" />
        </mxCell>
        <mxCell id="BZSTbK-Lmsxj-4GkQFBk-31" value="&lt;span style=&quot;text-wrap-mode: wrap;&quot;&gt;Books_ID&lt;/span&gt;" style="text;html=1;align=center;verticalAlign=middle;resizable=0;points=[];autosize=1;strokeColor=none;fillColor=none;fontStyle=0" parent="1" vertex="1">
          <mxGeometry x="175" y="2315" width="80" height="30" as="geometry" />
        </mxCell>
        <mxCell id="BZSTbK-Lmsxj-4GkQFBk-32" value="" style="line;strokeWidth=1;rotatable=0;dashed=0;labelPosition=right;align=left;verticalAlign=middle;spacingTop=0;spacingLeft=6;points=[];portConstraint=eastwest;" parent="1" vertex="1">
          <mxGeometry x="55" y="2330" width="190" height="10" as="geometry" />
        </mxCell>
        <mxCell id="BZSTbK-Lmsxj-4GkQFBk-33" value="&lt;h1&gt;transaction-Book_request&lt;/h1&gt;" style="text;html=1;align=center;verticalAlign=middle;resizable=0;points=[];autosize=1;strokeColor=none;fillColor=none;fontStyle=0" parent="1" vertex="1">
          <mxGeometry x="-10" y="2350" width="320" height="70" as="geometry" />
        </mxCell>
        <mxCell id="BZSTbK-Lmsxj-4GkQFBk-72" style="edgeStyle=orthogonalEdgeStyle;rounded=0;orthogonalLoop=1;jettySize=auto;html=1;exitX=0;exitY=0.5;exitDx=0;exitDy=0;exitPerimeter=0;" parent="1" source="BZSTbK-Lmsxj-4GkQFBk-35" edge="1">
          <mxGeometry relative="1" as="geometry">
            <mxPoint x="-40" y="2320" as="targetPoint" />
          </mxGeometry>
        </mxCell>
        <mxCell id="BZSTbK-Lmsxj-4GkQFBk-35" value="" style="verticalLabelPosition=bottom;verticalAlign=top;html=1;shape=mxgraph.basic.patternFillRect;fillStyle=grid;step=5;fillStrokeWidth=0.2;fillStrokeColor=#dddddd;" parent="1" vertex="1">
          <mxGeometry x="30" y="2420" width="130" height="40" as="geometry" />
        </mxCell>
        <mxCell id="BZSTbK-Lmsxj-4GkQFBk-73" style="edgeStyle=orthogonalEdgeStyle;rounded=0;orthogonalLoop=1;jettySize=auto;html=1;exitX=1;exitY=0.5;exitDx=0;exitDy=0;exitPerimeter=0;entryX=0.563;entryY=0.889;entryDx=0;entryDy=0;entryPerimeter=0;" parent="1" source="BZSTbK-Lmsxj-4GkQFBk-36" target="tIjBGX7rcAunNY12ScB5-51" edge="1">
          <mxGeometry relative="1" as="geometry">
            <Array as="points">
              <mxPoint x="960" y="2440" />
              <mxPoint x="960" y="860" />
              <mxPoint x="101" y="860" />
            </Array>
          </mxGeometry>
        </mxCell>
        <mxCell id="BZSTbK-Lmsxj-4GkQFBk-36" value="" style="verticalLabelPosition=bottom;verticalAlign=top;html=1;shape=mxgraph.basic.patternFillRect;fillStyle=grid;step=5;fillStrokeWidth=0.2;fillStrokeColor=#dddddd;" parent="1" vertex="1">
          <mxGeometry x="160" y="2420" width="130" height="40" as="geometry" />
        </mxCell>
        <mxCell id="BZSTbK-Lmsxj-4GkQFBk-37" value="&lt;span style=&quot;text-wrap-mode: wrap;&quot;&gt;Transaction_ID&lt;/span&gt;" style="text;html=1;align=center;verticalAlign=middle;resizable=0;points=[];autosize=1;strokeColor=none;fillColor=none;fontStyle=0" parent="1" vertex="1">
          <mxGeometry x="55" y="2425" width="100" height="30" as="geometry" />
        </mxCell>
        <mxCell id="BZSTbK-Lmsxj-4GkQFBk-38" value="&lt;span style=&quot;text-wrap-mode: wrap;&quot;&gt;Request_ID&lt;/span&gt;" style="text;html=1;align=center;verticalAlign=middle;resizable=0;points=[];autosize=1;strokeColor=none;fillColor=none;fontStyle=0" parent="1" vertex="1">
          <mxGeometry x="175" y="2430" width="90" height="30" as="geometry" />
        </mxCell>
        <mxCell id="BZSTbK-Lmsxj-4GkQFBk-39" value="" style="line;strokeWidth=1;rotatable=0;dashed=0;labelPosition=right;align=left;verticalAlign=middle;spacingTop=0;spacingLeft=6;points=[];portConstraint=eastwest;" parent="1" vertex="1">
          <mxGeometry x="70" y="2445" width="190" height="10" as="geometry" />
        </mxCell>
        <mxCell id="BZSTbK-Lmsxj-4GkQFBk-40" value="&lt;h1&gt;Aurthor-Book&lt;/h1&gt;" style="text;html=1;align=center;verticalAlign=middle;resizable=0;points=[];autosize=1;strokeColor=none;fillColor=none;fontStyle=0" parent="1" vertex="1">
          <mxGeometry x="30" y="2455" width="180" height="70" as="geometry" />
        </mxCell>
        <mxCell id="BZSTbK-Lmsxj-4GkQFBk-41" value="&lt;h1&gt;Publisher-Book&lt;/h1&gt;" style="text;html=1;align=center;verticalAlign=middle;resizable=0;points=[];autosize=1;strokeColor=none;fillColor=none;fontStyle=0" parent="1" vertex="1">
          <mxGeometry x="35" y="960" width="200" height="70" as="geometry" />
        </mxCell>
        <mxCell id="BZSTbK-Lmsxj-4GkQFBk-42" value="" style="verticalLabelPosition=bottom;verticalAlign=top;html=1;shape=mxgraph.basic.patternFillRect;fillStyle=grid;step=5;fillStrokeWidth=0.2;fillStrokeColor=#dddddd;" parent="1" vertex="1">
          <mxGeometry x="30" y="2510" width="130" height="40" as="geometry" />
        </mxCell>
        <mxCell id="BZSTbK-Lmsxj-4GkQFBk-74" style="edgeStyle=orthogonalEdgeStyle;rounded=0;orthogonalLoop=1;jettySize=auto;html=1;exitX=1;exitY=0.5;exitDx=0;exitDy=0;exitPerimeter=0;" parent="1" source="BZSTbK-Lmsxj-4GkQFBk-43" edge="1">
          <mxGeometry relative="1" as="geometry">
            <mxPoint x="1062" y="2330" as="targetPoint" />
          </mxGeometry>
        </mxCell>
        <mxCell id="BZSTbK-Lmsxj-4GkQFBk-43" value="" style="verticalLabelPosition=bottom;verticalAlign=top;html=1;shape=mxgraph.basic.patternFillRect;fillStyle=grid;step=5;fillStrokeWidth=0.2;fillStrokeColor=#dddddd;" parent="1" vertex="1">
          <mxGeometry x="160" y="2510" width="130" height="40" as="geometry" />
        </mxCell>
        <mxCell id="BZSTbK-Lmsxj-4GkQFBk-44" value="" style="verticalLabelPosition=bottom;verticalAlign=top;html=1;shape=mxgraph.basic.patternFillRect;fillStyle=grid;step=5;fillStrokeWidth=0.2;fillStrokeColor=#dddddd;" parent="1" vertex="1">
          <mxGeometry x="45" y="1030" width="130" height="40" as="geometry" />
        </mxCell>
        <mxCell id="BZSTbK-Lmsxj-4GkQFBk-81" style="edgeStyle=orthogonalEdgeStyle;rounded=0;orthogonalLoop=1;jettySize=auto;html=1;exitX=1;exitY=0.5;exitDx=0;exitDy=0;exitPerimeter=0;" parent="1" source="BZSTbK-Lmsxj-4GkQFBk-45" target="tIjBGX7rcAunNY12ScB5-26" edge="1">
          <mxGeometry relative="1" as="geometry">
            <Array as="points">
              <mxPoint x="710" y="1050" />
              <mxPoint x="710" y="760" />
              <mxPoint x="95" y="760" />
            </Array>
          </mxGeometry>
        </mxCell>
        <mxCell id="BZSTbK-Lmsxj-4GkQFBk-45" value="" style="verticalLabelPosition=bottom;verticalAlign=top;html=1;shape=mxgraph.basic.patternFillRect;fillStyle=grid;step=5;fillStrokeWidth=0.2;fillStrokeColor=#dddddd;" parent="1" vertex="1">
          <mxGeometry x="175" y="1030" width="130" height="40" as="geometry" />
        </mxCell>
        <mxCell id="BZSTbK-Lmsxj-4GkQFBk-46" value="&lt;span style=&quot;text-wrap-mode: wrap;&quot;&gt;Books_ID&lt;/span&gt;" style="text;html=1;align=center;verticalAlign=middle;resizable=0;points=[];autosize=1;strokeColor=none;fillColor=none;fontStyle=0" parent="1" vertex="1">
          <mxGeometry x="200" y="2510" width="80" height="30" as="geometry" />
        </mxCell>
        <mxCell id="BZSTbK-Lmsxj-4GkQFBk-80" style="edgeStyle=orthogonalEdgeStyle;rounded=0;orthogonalLoop=1;jettySize=auto;html=1;" parent="1" source="BZSTbK-Lmsxj-4GkQFBk-47" edge="1">
          <mxGeometry relative="1" as="geometry">
            <mxPoint x="1062" y="910" as="targetPoint" />
            <Array as="points">
              <mxPoint x="110" y="1120" />
              <mxPoint x="1063" y="1120" />
            </Array>
          </mxGeometry>
        </mxCell>
        <mxCell id="BZSTbK-Lmsxj-4GkQFBk-47" value="&lt;span style=&quot;text-wrap-mode: wrap;&quot;&gt;Books_ID&lt;/span&gt;" style="text;html=1;align=center;verticalAlign=middle;resizable=0;points=[];autosize=1;strokeColor=none;fillColor=none;fontStyle=0" parent="1" vertex="1">
          <mxGeometry x="70" y="1035" width="80" height="30" as="geometry" />
        </mxCell>
        <mxCell id="BZSTbK-Lmsxj-4GkQFBk-48" value="&lt;span style=&quot;text-wrap-mode: wrap;&quot;&gt;Author_ID&lt;/span&gt;" style="text;html=1;align=center;verticalAlign=middle;resizable=0;points=[];autosize=1;strokeColor=none;fillColor=none;fontStyle=0" parent="1" vertex="1">
          <mxGeometry x="55" y="2510" width="80" height="30" as="geometry" />
        </mxCell>
        <mxCell id="BZSTbK-Lmsxj-4GkQFBk-49" value="&lt;span style=&quot;text-wrap-mode: wrap;&quot;&gt;Publisher_ID&lt;/span&gt;" style="text;html=1;align=center;verticalAlign=middle;resizable=0;points=[];autosize=1;strokeColor=none;fillColor=none;fontStyle=0" parent="1" vertex="1">
          <mxGeometry x="205" y="1035" width="90" height="30" as="geometry" />
        </mxCell>
        <mxCell id="BZSTbK-Lmsxj-4GkQFBk-50" value="" style="line;strokeWidth=1;rotatable=0;dashed=0;labelPosition=right;align=left;verticalAlign=middle;spacingTop=0;spacingLeft=6;points=[];portConstraint=eastwest;" parent="1" vertex="1">
          <mxGeometry x="75" y="2535" width="190" height="10" as="geometry" />
        </mxCell>
        <mxCell id="BZSTbK-Lmsxj-4GkQFBk-51" value="" style="line;strokeWidth=1;rotatable=0;dashed=0;labelPosition=right;align=left;verticalAlign=middle;spacingTop=0;spacingLeft=6;points=[];portConstraint=eastwest;" parent="1" vertex="1">
          <mxGeometry x="85" y="1055" width="190" height="10" as="geometry" />
        </mxCell>
        <mxCell id="BZSTbK-Lmsxj-4GkQFBk-54" style="edgeStyle=orthogonalEdgeStyle;rounded=0;orthogonalLoop=1;jettySize=auto;html=1;entryX=0;entryY=1;entryDx=0;entryDy=0;entryPerimeter=0;exitX=0.5;exitY=1;exitDx=0;exitDy=0;exitPerimeter=0;" parent="1" source="BZSTbK-Lmsxj-4GkQFBk-5" target="yXZyFi9JdaWAmMFbI6_c-18" edge="1">
          <mxGeometry relative="1" as="geometry">
            <mxPoint x="560" y="391" as="sourcePoint" />
            <mxPoint x="-15" y="240" as="targetPoint" />
            <Array as="points">
              <mxPoint x="580" y="380" />
              <mxPoint y="380" />
              <mxPoint y="240" />
            </Array>
          </mxGeometry>
        </mxCell>
        <mxCell id="BZSTbK-Lmsxj-4GkQFBk-59" style="edgeStyle=orthogonalEdgeStyle;rounded=0;orthogonalLoop=1;jettySize=auto;html=1;entryX=0.5;entryY=1;entryDx=0;entryDy=0;entryPerimeter=0;" parent="1" source="yXZyFi9JdaWAmMFbI6_c-16" target="yXZyFi9JdaWAmMFbI6_c-18" edge="1">
          <mxGeometry relative="1" as="geometry">
            <Array as="points">
              <mxPoint x="580" y="260" />
              <mxPoint x="100" y="260" />
            </Array>
          </mxGeometry>
        </mxCell>
        <mxCell id="BZSTbK-Lmsxj-4GkQFBk-61" style="edgeStyle=orthogonalEdgeStyle;rounded=0;orthogonalLoop=1;jettySize=auto;html=1;exitX=0;exitY=0.5;exitDx=0;exitDy=0;exitPerimeter=0;entryX=0;entryY=0.25;entryDx=0;entryDy=0;entryPerimeter=0;" parent="1" source="BZSTbK-Lmsxj-4GkQFBk-7" target="yXZyFi9JdaWAmMFbI6_c-30" edge="1">
          <mxGeometry relative="1" as="geometry" />
        </mxCell>
        <mxCell id="BZSTbK-Lmsxj-4GkQFBk-64" style="edgeStyle=orthogonalEdgeStyle;rounded=0;orthogonalLoop=1;jettySize=auto;html=1;entryX=0;entryY=0.5;entryDx=0;entryDy=0;entryPerimeter=0;" parent="1" source="BZSTbK-Lmsxj-4GkQFBk-11" target="tIjBGX7rcAunNY12ScB5-60" edge="1">
          <mxGeometry relative="1" as="geometry">
            <Array as="points">
              <mxPoint x="225" y="2040" />
              <mxPoint x="15" y="2040" />
              <mxPoint x="15" y="940" />
            </Array>
          </mxGeometry>
        </mxCell>
        <mxCell id="BZSTbK-Lmsxj-4GkQFBk-66" style="edgeStyle=orthogonalEdgeStyle;rounded=0;orthogonalLoop=1;jettySize=auto;html=1;exitX=0.5;exitY=1;exitDx=0;exitDy=0;exitPerimeter=0;entryX=0.75;entryY=1;entryDx=0;entryDy=0;entryPerimeter=0;" parent="1" source="BZSTbK-Lmsxj-4GkQFBk-14" target="tIjBGX7rcAunNY12ScB5-73" edge="1">
          <mxGeometry relative="1" as="geometry">
            <Array as="points">
              <mxPoint x="85" y="2180" />
              <mxPoint x="810" y="2180" />
              <mxPoint x="810" y="1260" />
              <mxPoint x="145" y="1260" />
            </Array>
          </mxGeometry>
        </mxCell>
        <mxCell id="BZSTbK-Lmsxj-4GkQFBk-67" style="edgeStyle=orthogonalEdgeStyle;rounded=0;orthogonalLoop=1;jettySize=auto;html=1;entryX=0.378;entryY=-0.043;entryDx=0;entryDy=0;entryPerimeter=0;" parent="1" source="BZSTbK-Lmsxj-4GkQFBk-16" target="BZSTbK-Lmsxj-4GkQFBk-41" edge="1">
          <mxGeometry relative="1" as="geometry">
            <Array as="points">
              <mxPoint x="900" y="2140" />
              <mxPoint x="900" y="980" />
              <mxPoint x="111" y="980" />
            </Array>
          </mxGeometry>
        </mxCell>
        <mxCell id="BZSTbK-Lmsxj-4GkQFBk-69" style="edgeStyle=orthogonalEdgeStyle;rounded=0;orthogonalLoop=1;jettySize=auto;html=1;exitX=0;exitY=0.5;exitDx=0;exitDy=0;exitPerimeter=0;entryX=0;entryY=1;entryDx=0;entryDy=0;entryPerimeter=0;" parent="1" edge="1">
          <mxGeometry relative="1" as="geometry">
            <mxPoint x="19.93" y="2239.93" as="sourcePoint" />
            <mxPoint x="34.93" y="239.93" as="targetPoint" />
            <Array as="points">
              <mxPoint x="-45.07" y="2239.93" />
              <mxPoint x="-45.07" y="229.93" />
              <mxPoint x="34.93" y="229.93" />
            </Array>
          </mxGeometry>
        </mxCell>
        <mxCell id="BZSTbK-Lmsxj-4GkQFBk-77" style="edgeStyle=orthogonalEdgeStyle;rounded=0;orthogonalLoop=1;jettySize=auto;html=1;exitX=0;exitY=0.75;exitDx=0;exitDy=0;exitPerimeter=0;entryX=0;entryY=0.5;entryDx=0;entryDy=0;entryPerimeter=0;" parent="1" source="BZSTbK-Lmsxj-4GkQFBk-42" target="iMN4HVAPdnXT3awYnCwE-15" edge="1">
          <mxGeometry relative="1" as="geometry">
            <Array as="points">
              <mxPoint x="-170" y="2540" />
              <mxPoint x="-170" y="450" />
            </Array>
          </mxGeometry>
        </mxCell>
      </root>
    </mxGraphModel>
  </diagram>
</mxfile>
